<?xml version="1.0" standalone="no"?>
<!DOCTYPE svg PUBLIC "-//W3C//DTD SVG 1.1//EN" "http://www.w3.org/Graphics/SVG/1.1/DTD/svg11.dtd" >
<svg xmlns="http://www.w3.org/2000/svg" xmlns:xlink="http://www.w3.org/1999/xlink" version="1.1">
<metadata></metadata>
<defs>
<font id="get_schwiftyregular" horiz-adv-x="1366" >
<font-face units-per-em="2048" ascent="1536" descent="-512" />
<missing-glyph horiz-adv-x="618" />
<glyph horiz-adv-x="0" />
<glyph unicode="&#xd;" horiz-adv-x="618" />
<glyph horiz-adv-x="0" />
<glyph horiz-adv-x="0" />
<glyph unicode=" "  horiz-adv-x="618" />
<glyph unicode="&#x09;" horiz-adv-x="618" />
<glyph unicode="&#xa0;" horiz-adv-x="618" />
<glyph unicode="0" horiz-adv-x="1163" d="M0 994.5q-4 58.5 0 106.5t16 83q10 25 27.5 26.5t39 -5.5t46.5 -15t49.5 0t49 37.5t44.5 99.5q31 92 57.5 128t65.5 36q27 0 57.5 -17.5t67.5 -43t80 -56.5t92 -57q31 -14 69 -17.5t75.5 -8.5t72.5 -21.5t59.5 -60.5t37 -122.5t4.5 -209.5q-8 -123 -18.5 -244t-2.5 -238 q0 -78 -6 -136t-20.5 -90t-38 -32t-58.5 43q-20 27 -46.5 18.5t-56.5 -34t-61.5 -59t-62.5 -60.5t-59.5 -38t-51.5 9q-16 8 -32.5 30t-34 50.5t-34.5 62.5t-32 66q-37 78 -71 170q-35 -23 -67 3t-62.5 79t-61.5 125t-65 141q-31 66 -47.5 129.5t-20.5 122zM253 825.5 q1 -34.5 15.5 -54t44.5 -7.5q76 37 117 41t60.5 -13.5t20.5 -54.5t-4 -82t-12.5 -96t-4 -96t19.5 -83t59 -56q-27 -16 -13.5 3t45.5 49t71 58.5t61 32.5q27 8 49.5 6t34.5 5t12 30.5t-14 81.5q-16 57 -5 100t21.5 85t8.5 87t-45 107q-27 39 -31 49t-14.5 17t-43 25.5 t-116.5 72.5q-47 27 -78 38t-51.5 14t-30.5 1t-14 -2q-39 12 -59.5 -11.5t-33 -60.5t-17.5 -76t-13 -57q-18 -35 -29.5 -77t-10.5 -76.5z" />
<glyph unicode="1" horiz-adv-x="581" d="M11.5 1406q-9.5 54 12 92t62.5 58.5t84 16.5q27 0 55.5 -24.5t47 -69.5t23.5 -109.5t-13 -144.5q-8 -31 -4 -47.5t13 -28.5t18 -26.5t14 -41.5q4 -18 -0.5 -50t-11.5 -64.5t-13 -60t-6 -40.5l102 154q14 -8 10 -48t-23.5 -102.5t-50 -142.5t-69.5 -168q49 -53 57.5 -93 t-7 -70.5t-45 -55.5t-56.5 -47q-33 -43 -45 -78q-10 -29 -3 -52.5t58 -23.5q27 -2 44.5 -21.5t28.5 -50t16 -69.5t5 -78q2 -94 -12 -211q-16 4 -26.5 -19.5t-20.5 -55t-20.5 -61.5t-24.5 -36t-33.5 21.5t-48.5 109.5l-10 246l-82 307q2 39 4 76q2 33 1 66.5t-5 62.5 q-12 53 -7 124t15 134q12 74 33 152q-41 76 -54.5 117.5t-10.5 61t19.5 22.5t35 2t34 1t17.5 21q8 70 3 128t-44 97q-57 66 -66.5 120z" />
<glyph unicode="2" horiz-adv-x="1236" d="M-23.5 1057q-3.5 6 9.5 45q8 39 41.5 82t72.5 80q45 43 101 84q12 49 52 79.5t83 30.5t76.5 -36t33.5 -115q39 14 50.5 16t11.5 -5t-4 -20.5t4 -25.5t34.5 -23.5t88.5 -13.5q23 0 31 -23.5t20 -54.5t35.5 -61.5t77.5 -44.5q33 -8 46 -44t12 -87.5t-12.5 -109.5 t-25.5 -112.5t-28.5 -97.5t-22.5 -61q-8 -23 -27.5 -52.5t-39 -57.5t-32 -50.5t-3.5 -34.5q-12 -68 -15.5 -98.5t-0.5 -38.5t7 -2t3 13t-8 9t-27 -16q0 -8 23.5 -23.5t59 -28t76.5 -12.5t76 23q66 45 97.5 46t43 -18.5t9.5 -45t-7 -33.5q10 -10 -2 -29.5t-39.5 -39 t-67.5 -35t-85 -19.5t-93 9t-91 52q-8 -33 -24.5 -37t-37 8.5t-46.5 33t-50.5 35t-47 15.5t-40.5 -24q-49 -84 -80 -102.5t-53.5 -9t-45 23.5t-57.5 -4q-88 14 -121.5 52t-27.5 77t47 70.5t102 35.5q27 0 55.5 14.5t58.5 21.5t60.5 -2t61.5 -54q4 -8 8 3t11 31.5t16.5 45 t25.5 43.5q12 12 28.5 15t30 7t19.5 12.5t-6 26.5q-23 43 -16.5 67.5t25 40t38.5 25t25 21.5q-23 41 -40.5 93t-26.5 100.5t-10 87t10 52t34.5 -5t62.5 -81.5q39 90 49.5 140t2 75.5t-30 35t-45 18.5t-46 24.5t-32.5 54.5q-4 12 -36 16t-71 4t-76.5 -3t-52.5 -7 q-18 -4 -32.5 -21.5t-32 -35t-42 -27.5t-67.5 2q-35 8 -61.5 -1t-41.5 -14t-18.5 1z" />
<glyph unicode="3" horiz-adv-x="1007" d="M6 221q-16 45 12.5 48t77.5 -13t106.5 -38.5t100.5 -27.5q14 0 18.5 10.5t3.5 24t-3.5 26.5t2.5 21q12 25 37.5 39.5t53 23.5t52.5 20.5t35 33t2 56t-47 94.5l30 30q-16 23 -26 67t-19.5 84t-20.5 64.5t-26 10.5q-27 -31 -56.5 -38t-59 -3t-58 12t-51.5 8 q-61 4 -102 24.5t-47.5 45t27.5 48t122 36.5q23 -8 39 1t30.5 24.5t28 31.5t30.5 22.5t40.5 -4t56.5 -45.5q12 -16 21.5 -1.5t21 41t22.5 59.5t27 55q-4 4 -9 20.5t-11 36t-11 36t-10 20.5q29 43 56.5 69.5t45 44t18.5 29.5t-23.5 25.5t-82 34t-157.5 53.5 q-29 -2 -64.5 -9.5t-71.5 -12.5t-70 -9t-57.5 1t-33.5 18.5t0 41.5q39 23 44 40.5t-4 28.5t-21.5 17.5t-8.5 6.5q18 4 55.5 5t71.5 -1q41 -2 88 -4q8 39 47.5 55t86.5 16t79.5 -19.5t32.5 -72.5q57 14 100.5 6t69 -35.5t29.5 -72.5t-14 -103q-18 -57 -9 -87.5t24 -51 t24.5 -38t-9.5 -48.5q-39 -49 -54 -76.5t-16 -52.5t8 -54.5t21 -82.5q0 -16 -5 -25.5t-5 -25.5q0 -8 5 -20.5t5 -20.5q31 -18 39 -22.5t10 -13.5t6.5 -36t26.5 -92q-12 -8 -6 -11.5t18.5 -7.5t26.5 -11t23 -21q12 -20 4 -38t-27.5 -36.5t-43 -39t-43 -45t-28 -56t4.5 -72.5 q18 -53 14 -96t-29.5 -70t-68.5 -36t-101 7q0 -53 -33.5 -76.5t-76.5 -22.5t-83 22.5t-53 56.5q-53 25 -100 49q-41 23 -78 47.5t-47 46.5z" />
<glyph unicode="4" horiz-adv-x="1298" d="M-4 1071q10 16 10 49t-1 72t0 77t12.5 60.5t37 25.5t74.5 -28q-16 -47 -9 -86t60 -78q14 -4 16.5 -13t-2 -20.5t-12.5 -23.5t-12 -25q16 -47 23.5 -97t-23.5 -97q12 -39 41 -74t65.5 -57.5t78.5 -30.5t81 8q14 0 29.5 6t31 13.5t31 11.5t31.5 0q39 -8 67.5 3t45.5 28 q23 31 22.5 88t-22.5 127q25 -10 22.5 20.5t-17.5 80.5t-34.5 108.5t-27 101.5t5 60.5t61.5 -13.5l102 -51q4 -18 5.5 -63.5t3.5 -95.5t6 -95t16 -64q14 -18 29.5 -37.5t24 -38t4 -36t-26.5 -31.5q-16 -8 -12 -20.5t16 -24.5t28.5 -22.5t28.5 -14.5q14 8 25.5 5t21 -9 t19.5 -14t26 -13q70 -8 86.5 -15t5 -15t-35 -15.5t-35.5 -15.5q-16 -8 -40 -13t-50.5 -9.5t-54 -6.5t-50.5 -2q-16 -43 -18 -105.5t1 -131t7 -134t0 -110.5v-84t-6 -47t-23.5 -22.5t-52.5 -10.5q27 57 30 88t-7.5 43.5t-28.5 9t-36.5 -12.5t-31 -20.5t-8.5 -15.5 q-43 4 -47 39t8.5 84t32 107.5t27.5 107.5l-92 133q-39 8 -78 23.5t-86 7.5q-72 -57 -100.5 -67.5t-37 3t-4 42t-1 50t-32 28t-91.5 -24.5q-55 43 -74 72.5t-17 50t15.5 35t21.5 26.5t0 26.5t-49 35.5q-43 41 -50 60t3 28.5t29.5 12.5t28 11t-2 25.5t-59.5 56.5z" />
<glyph unicode="5" horiz-adv-x="1183" d="M8 1243q2 25 6 43q4 12 22.5 5t45.5 -19t55 -24.5t51 -12.5q18 0 31.5 28.5t25 60.5t25 54.5t31.5 10.5q31 -4 48.5 -20.5t27.5 -35.5q10 -23 16 -47q27 -4 53.5 2t53 14.5t51 16.5t47.5 8q18 4 34.5 -3t30 -17.5t24.5 -17.5t24 -3q57 14 115.5 24.5t104.5 8.5 t73.5 -18.5t23.5 -55.5q0 -12 -16.5 -36.5t-42 -50t-56 -47t-60.5 -28t-54.5 8t-36.5 61.5q-8 27 -24.5 24t-38 -17.5t-48 -31t-53.5 -16.5l-225 31q-8 -8 -14.5 -16.5t-20.5 -13.5t-42 -4t-77 13l-20 -112q-31 -33 -41 -58q-10 -23 -3 -39t54 -16q53 -4 72.5 -56.5 t21.5 -115.5q2 -74 -12 -166q-8 8 -15.5 -3t-15.5 -28q35 -12 55.5 6.5t42 35t50 19.5t77.5 -40q23 -18 62 -20.5t78 -1.5t71.5 -3t44.5 -26q0 -8 -1 -20.5t-9 -20.5q8 -8 9 -15.5t1 -15.5q31 -16 39 -18t10.5 -8.5t6.5 -27t26 -69.5q-12 -8 -6 -11t18.5 -6t27 -7.5 t22.5 -16.5q12 -14 4 -28.5t-26.5 -27.5t-42 -28.5t-42 -34t-26 -42t9.5 -54.5q18 -47 12 -81t-32.5 -53t-71.5 -25.5t-103 6.5q0 -43 -33.5 -61.5t-76.5 -18.5t-83 16t-52 43q-55 20 -101 41q-39 16 -72.5 35.5t-42.5 36.5q-18 35 8.5 37t74 -9.5t104.5 -28t100 -20.5 q14 0 18.5 7.5t3.5 16.5t-3 19t2 19q12 18 37.5 27t53 16.5t52.5 16.5t35 25.5t2 44t-47 74.5q8 8 15 10.5t16 10.5q-16 14 -26.5 48t-19 65.5t-16.5 52t-20 8.5q-31 -23 -62 -29t-59.5 -3t-55 10.5t-49.5 11.5q-49 0 -87 8t-56 20.5t-17 26.5t27 27q0 8 -6 16t-14 25 l-11 184l-81 235q6 31 8 60q2 25 1 53.5t-9 50.5q-12 39 -15.5 69t-1.5 52z" />
<glyph unicode="6" horiz-adv-x="987" d="M-5 1081.5q-3 26.5 13.5 51t69.5 51.5q23 12 44 29.5t44.5 28.5t49.5 10t56 -27q39 14 76 23t67.5 6t52 -19t30.5 -51q8 -39 17 -51.5t24.5 -15.5t35 -5t48 -18.5t65.5 -56.5t86 -119q18 -27 26.5 -59t4.5 -53.5t-19.5 -27.5t-42.5 17q-12 12 -27.5 30.5t-28.5 32.5 t-21.5 18.5t-3.5 -10.5q12 -49 -1.5 -50t-33 18.5t-36 47t-11.5 36.5q8 14 -1.5 34.5t-28 33.5t-42 14t-41.5 -21q-16 -16 -35.5 -19.5t-40 1t-38 12.5t-29.5 16q-31 14 -65 9t-61.5 -22.5t-45 -42t-13.5 -46.5l92 -174h103q74 39 113.5 29.5t66.5 -40t46.5 -70.5t49.5 -63 q61 -27 81 -50t19 -48t-11.5 -50.5t-6.5 -55.5q4 -23 15.5 -49.5t16.5 -53t-4 -53.5t-48 -49q35 -66 30.5 -111t-32 -71.5t-72.5 -37t-90 -6.5q-35 0 -57.5 -10t-37 -18t-22.5 -6t-16 24q-43 33 -72 52.5t-47 33t-30.5 28.5t-26 40.5t-29.5 66.5t-41 107q-18 49 -31.5 98 t-17.5 93t3 82t26 65q-6 31 -20.5 45t-32 19t-34 6.5t-22.5 5.5t1 16t36 41l-10 225q-4 43 -16.5 75t-15.5 58.5zM225 461.5q6 -23.5 22.5 -57t33 -66.5t12.5 -45q-4 -8 1 -26.5t13 -40t18.5 -40t18.5 -26.5q12 -18 23.5 -23.5t23.5 -5.5h25.5t29.5 -12q23 -16 44.5 -27.5 t37.5 -3.5q16 0 24.5 7t16.5 24q16 47 26.5 87t-5.5 87q-16 31 -19.5 72t-11.5 71q-4 18 -34.5 40t-65.5 36t-61.5 17t-22.5 -11q23 -70 8.5 -84t-44.5 -5t-59.5 28.5t-37.5 19.5q-23 8 -17 -15.5z" />
<glyph unicode="7" horiz-adv-x="976" d="M20.5 1097.5q-10.5 14.5 5 34t72.5 62.5q8 61 30 81.5t49.5 14.5t58 -33.5t57.5 -62.5q39 41 83 45t83 -8q45 -14 90 -47q88 31 157.5 47t101.5 5t15.5 -54t-100.5 -131q-4 -35 -15.5 -73t-22.5 -75t-19.5 -72.5t-3.5 -66.5q4 -31 9 -58.5t0 -56t-25.5 -60.5t-65.5 -71 q-27 -23 -42.5 -50.5t-22.5 -61t-10 -74.5t-7 -90q-20 -51 -14.5 -76t21 -37t32 -19.5t16.5 -21.5t-25.5 -44t-91.5 -89q-18 -18 -17 -45t4 -58.5t-2 -67.5t-36 -75q-63 -98 -98 -130t-49.5 -16.5t-11.5 68t13.5 123t25 149.5t25.5 147.5t14 115.5t-11 55q0 8 -8.5 -7 t-18.5 -33.5t-20 -34t-15 -7.5q-16 35 -7 73t32 77t52.5 79t56.5 78q63 94 92.5 160t39 113t4.5 78.5t-12.5 59.5t-8.5 55.5t18 66.5q12 23 -6.5 31t-46 9t-55.5 -1t-36 2q-35 -4 -58.5 -30.5t-48 -44t-54 -9.5t-74.5 74q-31 39 -59.5 56t-39 31.5z" />
<glyph unicode="8" horiz-adv-x="997" d="M6 252q-8 27 4.5 65.5t28.5 73.5q20 41 49 86q-31 14 -37 41t2 59.5t27.5 69.5t38.5 76q16 31 32.5 53.5t38.5 38.5q-31 18 -43 48t-18 62.5t-11 65.5t-20 60q-47 57 -55 87.5t1 49t27.5 32t26.5 35.5q8 23 9.5 52.5t7.5 55.5t24.5 40t61.5 6q0 78 27.5 110.5t74.5 32.5 q39 -8 76 -23.5t67 -37.5q35 -23 62 -30t45 -11t27.5 -11t9.5 -30q25 -51 43 -82t28.5 -53.5t16.5 -42t8 -48t0 -71.5t-4 -113q0 -109 -25.5 -181.5t-87.5 -94.5v-10q66 -4 95.5 -25.5t44 -58.5t23.5 -86t32 -107q10 -25 30.5 -52.5t38 -55t28.5 -55t2 -54t-44 -52.5 t-106 -48q-61 -16 -132 -39t-124 -53q-78 -31 -126 -31t-48 61q0 31 -42 55.5t-92.5 46t-94.5 44t-48 49.5zM201 1122q0 -18 22.5 -55t49 -69.5t49 -50t22.5 0.5q2 47 12.5 61.5t24.5 9.5t30.5 -24.5t32 -42t26.5 -42t17 -23.5q18 -18 21.5 5t0.5 60l-6 74t5 45q8 4 12 21.5 t5 39t-1 44t-6 38.5q-4 18 -13 28.5t-20.5 18t-23.5 17.5t-25 29q-16 23 -30.5 43t-30.5 28q-8 8 -10.5 9.5t-10.5 1.5t-15 -1.5t-15 -9.5q-31 -23 -57.5 -49t-35.5 -74q0 -31 -11 -66.5t-19 -66.5zM260 267.5q4 -15.5 33 -25.5q27 -8 49.5 18.5t47 52t52 34.5t66.5 -34 q18 -18 19 -0.5t-8 51t-21.5 72.5t-20.5 62t-5 52.5t-5 59.5l-41 41q-8 0 -15.5 5.5t-15.5 5.5q-47 -4 -77.5 -19.5t-41 -41.5t2 -62.5t55.5 -81.5q12 -16 7 -35t-19.5 -39.5t-31 -40.5t-25.5 -39.5t-5 -35z" />
<glyph unicode="9" horiz-adv-x="1038" d="M4 62.5q0 35.5 7 62.5t22.5 34t34.5 -20q12 -57 29.5 -70.5t29.5 -16.5t13 -16t-21 -71q-12 -16 -4 -38.5t27.5 -38t46 -15.5t53.5 31q14 14 32.5 33.5t37 35t34.5 23.5t29 0q27 -23 61.5 -18.5t65 25t51 50t16.5 56.5q14 72 19 133q4 53 -5.5 100t-43.5 64 q-18 8 -36 -3.5t-34 -30t-32.5 -38t-30.5 -31.5q-43 -33 -72 -35t-48.5 14.5t-33.5 46t-26.5 60.5t-28 55.5t-37.5 32.5q-61 14 -75.5 39t-7.5 54.5t21.5 63.5t10.5 68q-4 31 -18.5 78t-18.5 96.5t10 96.5t68 78q66 39 91 67.5t38.5 48t28 28.5t57.5 9q35 -4 55 4.5 t34.5 16.5t26 8t27.5 -19q31 -43 42 -72.5t14 -53t5 -45t12.5 -49t35 -65.5t75.5 -93q49 -61 69.5 -115.5t20.5 -103t-15 -90.5t-34 -81q-8 -18 5.5 -27t21.5 -21.5t0 -36t-58 -68.5q-12 -16 -15 -46t-3 -67t1 -74.5t-3 -68.5q-4 -49 1 -87t1 -70t-25.5 -60.5t-78.5 -59.5 q-23 -12 -42.5 -24t-40 -19.5t-47 -8.5t-65.5 11q-43 8 -53 3t-13.5 -13t-13.5 -13t-53 3q-90 12 -132 14t-56.5 5t-10.5 13.5t8.5 39t-3 82t-42.5 143.5q-12 31 -12 66.5zM209 713.5q4 -25.5 11 -52t11 -40.5q0 -18 26 -43t56.5 -42.5t56 -21.5t25.5 14q12 84 29.5 116 t38 28t40 -34t36.5 -69q12 -18 7 8.5t-13.5 68.5t-15.5 84t1 54t7 35t-7 46.5t-14 44t-17 28.5q-8 18 -17 23.5t-20.5 6.5t-25.5 3t-29 18q-23 16 -41 28.5t-41 12.5q-8 -8 -19 -16t-11 -25q-8 -27 13 -52.5t33.5 -50t-3 -50t-95.5 -52.5q-18 -4 -22 -24.5t0 -46z" />
<glyph unicode="A" horiz-adv-x="690" d="M16 257q-2 19 -1 39q1 59 15 123q20 85 48 175t37 174l30 287q-12 27 -14 67v12q1 34 11 66q12 38 42 60q20 15 50 14q16 0 34 -4q0 88 10.5 143t27 92t37 61.5t38.5 51.5q8 -16 13 -36.5t8.5 -57.5t3.5 -93.5t-5 -140.5q12 -35 26.5 -60.5t26.5 -57.5q11 -30 12 -80v-7 q0 -48 -13 -122q4 -57 5 -114.5t7 -108t19.5 -89.5t39.5 -57q0 -78 6 -142q5 -62 8 -130q1 -27 1 -57q-1 -44 -3 -93q-4 -82 -22 -192l-123 215l-31 337l-71 62l-82 -225l-41 -205l-82 -236q-31 16 -35 60v8q0 44 35 127q-62 57 -68 134zM217 819q12 31 23.5 47.5t26 13.5 t32.5 -28t41 -74l-31 185v194q-27 -90 -47 -162q-16 -61 -30.5 -114.5t-14.5 -61.5z" />
<glyph unicode="B" horiz-adv-x="1003" d="M-13 279.5q1 27.5 22.5 64.5t74.5 86q0 47 4 90q4 37 9 77t18 69q14 66 29.5 153.5t25.5 181t15 182.5q3 49 3 93q0 35 -2 65q0 31 -9 51.5t-20.5 35t-18.5 24.5t-3 23q18 57 31.5 113.5t28 108.5t34 97t50.5 80q8 8 15 14t15 6q31 0 52.5 -17t29.5 -34q7 -17 7 -33 q0 -18 -8 -34q-15 -32 -40.5 -63.5t-51.5 -64t-30 -71.5q-4 -27 4.5 -54.5t19.5 -55t22.5 -56.5t15.5 -59q1 -20 1 -41q-1 -59 -9 -119q-12 -82 -29 -161t-35 -149.5t-31 -123.5q-4 -23 0 -39.5t9.5 -28.5t7.5 -22.5t-6 -22.5q-12 -39 -16 -80q-2 -22 -1 -41q0 -18 1 -32 q3 -32 15.5 -48t30.5 -4q53 35 118 61.5t122 45t96 28t43 9.5q12 -4 -2 4t-34.5 21.5t-37 28.5t-8.5 28q12 31 52 38q19 3 41 3q24 1 48 -3q48 -8 93 -27.5t63 -41.5q12 -12 2 -25.5t-24.5 -29t-25.5 -33t-3 -35.5q39 -96 41 -188v-8q0 -86 -38 -152q-40 -70 -127 -108 q-65 -28 -157 -28q-32 0 -67 3q-8 1 -17 1q-40 0 -80 -16q-48 -20 -91 -27q-10 -2 -19 -2q-34 -1 -67 19q-42 24 -85 117q-8 18 -27.5 34.5t-39 34t-35.5 39t-15 49zM263 225.5q-5 -22.5 6.5 -49t49.5 -53.5q18 -12 50 -11t67 8t72 19.5t67 24.5q23 8 56 14t62.5 16.5 t47 24.5t9.5 37q-8 14 -18.5 46t-18.5 68t-13.5 69.5t-1.5 52.5q0 20 -10 20q-8 0 -21.5 -12.5t-26.5 -28.5t-23.5 -36.5t-10.5 -35.5q0 -16 4 -31.5t8.5 -27.5t5.5 -19.5t-8 -3.5q-16 4 -24 18.5t-16.5 31t-17.5 30t-23 13.5q-9 3 -19 3q-21 -1 -44 -13q-34 -18 -66 -40 q-37 -27 -76 -63q-23 -12 -42.5 -30.5t-24.5 -41z" />
<glyph unicode="C" horiz-adv-x="1028" d="M29 412.5q8 31.5 27.5 70.5t43 84t43 93.5t27.5 98.5q3 20 3 40q0 30 -7 61q-15 57 -15 112q0 12 1 24q4 66 29.5 122t68.5 95.5t100 56.5q4 53 24.5 97t49.5 75t61.5 47t59.5 16q16 0 33.5 -14t17.5 -37q53 -4 100 -14q41 -10 77 -25.5t48 -42.5q5 -18 5 -32 q0 -28 -18 -42q-28 -20 -76 -28t-103.5 -13.5t-93.5 -27.5q-16 -4 -19.5 -17.5t-3.5 -32v-39t-8 -34.5q-10 -43 -35 -79t-52.5 -68.5t-51 -65.5t-33.5 -71q-5 -20 -5 -42q0 -20 4 -41q9 -45 50 -104q-43 -92 -65.5 -158.5t-29.5 -110.5q-4 -28 -4 -48q0 -11 1 -20 q4 -24 16 -32q27 -18 43 -9t32.5 29.5t38 45t60.5 37.5l102 20q18 2 26.5 -14.5t14 -37t13.5 -41t26.5 -24.5t50 14.5t85.5 71.5q14 18 21 -18q3 -13 3 -28q0 -26 -8 -59q-12 -52 -49 -99.5t-111 -51.5q-31 -4 -48 -29.5t-35.5 -45t-45 -17.5t-76.5 51q-12 12 -23 -9 t-20.5 -62t-19.5 -90.5t-22.5 -91t-26 -67.5t-31.5 -17q-12 4 -16 22t-8.5 45t-14.5 55.5t-33 51.5q-35 38 -40 80q-2 20 -2 39q1 20 3 38q6 35 9.5 59.5t-11.5 28.5q-20 4 -44.5 0t-44 -4t-31 9.5t-6 43t32 97t83.5 172.5q12 14 -5 -5.5t-44 -46t-54.5 -47t-39.5 -4.5 q-12 23 -4 54.5z" />
<glyph unicode="D" horiz-adv-x="886" d="M-112 564q-6 27 -6 53q0 41 14 81q24 66 116 131q27 31 38 75t29.5 81t54.5 55q16 8 39 7q31 0 75 -13l112 21l52 491q4 61 8 127t12 119t20.5 88t30.5 35q20 0 21 -10l31 -267l-41 -276q49 -31 57 -80q4 -22 4 -45q0 -29 -6 -59q-10 -56 -27.5 -113t-17.5 -102 q47 -53 55 -141q2 -24 2 -49q0 -69 -16 -148q-18 -109 -23.5 -225.5t-7.5 -215t-7 -162t-24 -63.5q-4 0 -6 2q-4 4 -4 8q-8 53 -16 92t-18.5 70t-25 57.5t-32.5 57.5q-8 -51 -14.5 -81t-17.5 -44.5t-28.5 -18.5t-48 -5t-76.5 -3t-112 -12q-16 2 -33 10q-14 6 -27.5 15.5 t-21.5 25.5q-16 18 -16 46t6 54q8 31 20 64q-31 66 -69.5 132.5t-54.5 134.5zM94 573q-2 -14 -3 -28q-1 -31 13 -59q18 -40 41 -87q16 -16 24.5 -18t16.5 -2q23 0 41.5 14.5t40.5 36.5q14 14 26.5 19.5t24 6.5t20.5 5t21 20q4 12 9.5 33t9.5 44.5t5 44t-3 32.5 q-12 12 -30.5 31.5t-38 46t-35 56.5t-19.5 60l-10 11q-8 0 -20.5 -23.5t-25 -54.5t-22.5 -61.5t-14 -45.5q0 -16 -10.5 -24t-22.5 -16.5t-23.5 -17.5t-15.5 -24z" />
<glyph unicode="E" horiz-adv-x="1085" d="M42 454.5q1 16.5 8 36t19.5 42t24.5 40.5q-4 61 -22 127q-19 70 -18 132q0 60 30 114q31 55 123 98q-18 29 -18 50q-1 11 5 19q14 24 54.5 35t95.5 13t109 6l235 -71q16 3 30 3q38 0 59 -24q28 -33 38 -85t12 -110.5t15 -101.5q-10 -16 -9 -33.5l2 -35t-5 -32.5t-30 -23 q-22 -8 -62 -8h-10q-48 1 -132 13q-16 -23 -33.5 -47t-42 -39.5t-55.5 -15.5t-74 27l-112 -92l71 -400l195 -20l164 10l51 225l61 -31l62 103l-52 -338q-57 -39 -98 -61.5t-71.5 -31.5t-55 -3t-51.5 24q-96 -39 -151.5 -56t-84 -20.5t-38 2t-13.5 13.5q-4 88 -25.5 171 t-52 151.5t-66.5 120.5t-71 79q-12 8 -11 24.5zM217 819l31 -112q58 -7 118 -17q46 -7 89 -8q15 0 27 1q56 3 103.5 25.5t82.5 79.5q-35 14 -48.5 39t-14.5 52.5t6 57.5t16 56q-39 0 -69.5 5.5t-53.5 5.5q-47 0 -76 -9.5t-37 -31.5l-72 -72z" />
<glyph unicode="F" horiz-adv-x="1091" d="M-115 485q31 9 70 9h7q36 0 73 -5q8 12 25.5 18.5t33.5 18.5q17 14 27 38q6 15 6 40q0 15 -2 33l6 53q-10 0 -27 19q-35 39 -46 70.5t-10 60t12.5 56.5t23.5 58q12 31 13 67v18q0 27 -2 55q-3 36 -7 74t-4 73q-57 88 -57 127q1 39 37 50q22 7 53 7q21 -1 45 -3 q62 -8 130 -13q40 -4 78 -4q26 0 50 2q62 4 94 39q88 -6 156.5 -28t95.5 -48.5t2 -54t-121 -43.5q-44 -4 -74 -4q-29 0 -45 4q-32 8 -38.5 15t-5.5 7t-21 -22q-8 -4 -38 -12.5t-61.5 -20.5t-55 -29.5t-19.5 -40.5q6 -26 6 -46q0 -11 -2 -23q-6 -28 -17.5 -56t-23.5 -60 t-14 -77v-13q0 -42 10 -98q12 -66 51 -159q25 64 38 64q1 -1 2 -1q13 -4 14 -45v-8q0 -39 -9 -95q-10 -62 -27 -114q53 -7 99 -7q24 0 44 2q62 5 108 14.5t78 18.5t50 5q19 -3 27 -25q6 -16 6 -52v-19t-26.5 -12.5t-63.5 -4.5t-73 -8t-52 -26l-246 -58q-4 -20 -8 -30 q-17 -84 -17 -146q-1 -20 1 -39q5 -48 5 -77q0 -15 -1 -25q-12 -31 -12 -38t12 -12t34.5 -17.5t57.5 -55.5q14 -18 16 -23.5t-3 -7.5t-12 -8t-11 -25q-2 -16 -2 -31q0 -33 12 -59q18 -37 36 -66q18 -30 24 -58q1 -4 1 -7q0 -25 -30 -55q-16 -55 -48 -82q-19 -16 -38 -16 l-26 8q-33 18 -53 89q-13 46 -13 121q0 40 4 89q-23 61 -36.5 118.5t-20.5 107.5t-12 94t-13 79q-21 36 -21 69v6q2 36 12 71q-39 12 -83 32z" />
<glyph unicode="G" horiz-adv-x="1075" d="M-68 -228q5 44 20 74.5t50 30.5q57 0 80.5 -23.5t22.5 -56.5t-21.5 -67.5t-50.5 -57.5q-31 -21 -31 -44q0 -4 1 -8q7 -28 38 -49.5t76 -33.5q34 -9 65 -9q11 0 21 1q41 4 69 27q27 22 27 68v7q-2 20 15.5 21.5t47 -6.5t66.5 -21.5t70.5 -23t60.5 -9.5t37 19q27 38 27 83 q0 6 -1 13q-4 53 -23 111.5t-43 119t-32 113.5q-57 -31 -91 -31t-58.5 17.5t-45 45.5t-50.5 50q-27 14 -64 19.5t-75 14.5t-74.5 32.5t-63.5 76.5q-1 7 -1 14q0 33 15 72q19 46 43 87q29 47 66 94q4 38 4 70.5t-4 60.5q-8 55 -19.5 101t-17.5 90q-2 15 -2 30q0 32 8 68 q31 109 78 151.5t86 42.5q18 -4 26.5 -39t21.5 -74.5t41 -69.5q22 -24 62 -24q11 0 23 2q27 0 56.5 -34.5t49 -79.5t21.5 -89v-6q0 -39 -24 -57q-23 -16 -15 -29.5t30.5 -30t48.5 -37t38 -46.5q10 -30 10 -64v-12q-2 -41 -10 -81t-17.5 -77t-13.5 -63q39 -31 48.5 -87.5 t19.5 -131t36.5 -164.5t100.5 -191q16 -21 16 -44q0 -14 -7 -30q-17 -38 -56 -74t-89 -67.5t-89 -50.5q-57 -31 -125 -51.5t-137 -24.5q-16 -1 -33 -1q-51 0 -103 9q-67 13 -125 48q-53 31 -80.5 91t-41.5 113q-4 39 -9 88q-2 25 -2 48.5t2 45.5zM202 322q1 -37 36 -56 q23 -16 48 -10t49.5 23.5t44 42t32.5 47.5q14 31 16 63v17q0 24 -4 47q-6 32 -15.5 65t-17.5 64q-3 21 -3 46q0 13 1 27q1 16 1 32q0 25 -2 48q-3 39 -15 65.5t-43 26.5q-43 -4 -54 -36q-11 -30 -11 -71v-7q1 -45 6 -94q2 -20 2 -37q0 -28 -5 -52q-4 -39 -22.5 -84 t-31.5 -88q-12 -40 -12 -74v-5z" />
<glyph unicode="H" horiz-adv-x="1202" d="M28 1915q3 27 20.5 38t55.5 23q23 8 43.5 14.5t28.5 6.5q27 0 28 -17.5t-7.5 -42t-15.5 -53.5t5 -51h11q39 1 48 -53q6 -37 6 -86q0 -22 -1 -46q-4 -78 -13.5 -170t-9.5 -167l41 -215q18 -4 38 -12.5t40.5 -14.5t42 -9t43.5 5q45 76 71.5 105.5t39 30.5t16.5 -20.5t6 -51 t6 -60.5t16.5 -47t38 -12t72.5 45q61 -59 90 -94t39.5 -54.5t10.5 -31t5 -20.5t21.5 -23.5t59.5 -43.5q23 -27 10.5 -54t-37.5 -61t-47 -76q-19 -36 -20 -79q0 -8 1 -16q-27 31 -32.5 35t-1.5 -4.5t15 -19.5t19 -11q16 -16 39 -45t54 -68q50 -61 68 -136q16 -65 15 -122v-19 q-3 -66 -21.5 -109.5t-41.5 -43.5q-4 -8 -24.5 -10t-43 1t-38 10t-7.5 20q4 35 16.5 73.5t18.5 75.5q3 20 3 39q0 16 -2 32q-5 34 -36 56q-31 8 -56 30.5t-25 61.5q-16 78 -35 154q-9 34 -9 69q0 42 13 84q-16 57 -48 108.5t-72 83.5t-84 38q-7 1 -14 1q-36 0 -69 -26 q-49 -4 -81 -55t-45 -131q-10 -61 -10 -133q0 -21 1 -45q4 -98 22 -199q8 -49 22.5 -97t28 -91t22.5 -77t7 -55.5t-20.5 -27.5t-59.5 10q-18 12 -39.5 31.5t-43 24.5t-45 -13t-46.5 -84l-10 246l31 287l-21 20q-31 45 -30 102q-23 31 -38.5 61t-23.5 52q-8 31 -8 70 q0 22 3 48q7 70 20 136q14 76 36 156q1 22 1 46q0 46 -5 100q-8 80 -19 163.5t-22.5 160t-15.5 134.5q-8 88 -13 138q-3 31 -3 54q0 13 1 23z" />
<glyph unicode="I" horiz-adv-x="608" d="M7 976v11q0 27 4 57q5 36 16 74q23 84 67 182q18 -12 40 -31.5t43.5 -24.5t45 13.5t45.5 83.5l11 -245l-41 -328q29 -35 53 -70q23 -29 42 -63.5t27 -61.5q6 -32 6 -71q0 -22 -2 -48q-6 -68 -18 -135q-14 -76 -37 -155q-12 -74 -12 -133v-17q2 -66 11 -115t17.5 -81.5 t5.5 -53t-25 -27.5q-17 -5 -51 -5h-22q-43 0 -56 5t-13 26.5t9 64.5t13 121l-51 246q-16 4 -31 9q-14 4 -18 28q-1 6 -1 14q0 22 9 58q12 48 51 136l-10 518q-10 -31 -22 -51q-10 -16 -25.5 -27.5t-34.5 1.5q-23 12 -34 37.5t-12 57.5zM22 1636q7 38 19 74q12 39 33 82 q-12 31 -28.5 61.5t-19.5 61.5v8q0 27 17 53q20 30 82 62l51 -154l103 -41q31 -23 50 -53q14 -23 15 -58q0 -11 -2 -22q-6 -49 -44 -126t-122 -191q-41 29 -74 59q-29 27 -52 56.5t-27 58.5q-4 17 -4 35q0 16 3 34z" />
<glyph unicode="J" horiz-adv-x="915" d="M23 -51q14 43 43.5 27.5t61.5 -73t59.5 -147.5t39.5 -196q4 -35 21.5 -53.5t44 -26.5t57.5 -7t62 5v66q0 98 -4 190q-2 51 -6.5 105.5t-11.5 104.5t-17.5 94t-22.5 75l-51 245q-16 8 -30.5 15.5t-18.5 30.5q-1 6 -1 14q0 22 9 56q12 46 51 130q2 28 2 50q0 40 -7 63 q-11 35 -27.5 49t-34 18t-24.5 17.5t-1 45.5t37 103q-23 12 -34 28.5t-12 35t4 39t15 41.5q23 47 66 98q31 -27 50 -45.5t33.5 -52t29 -95t32.5 -172.5q29 -33 54 -65q23 -29 42 -60.5t27 -58.5q9 -46 9 -117v-14q-1 -80 -7 -158q-8 -90 -22 -190q8 -80 17 -149.5t15.5 -136 t8.5 -134.5v-25q0 -57 -7 -118q-16 -104 -54 -181t-85 -123.5t-95 -58.5q-15 -4 -29 -4q-30 0 -54 18q-27 18 -55.5 67.5t-58 134.5t-60.5 207t-61 288zM65.5 1622q0.5 29 22 55.5t56 47t69.5 24.5q39 0 71.5 -26.5t41.5 -96.5l92 -31q30 -69 30 -106v-11 q-6 -36 -30.5 -54.5t-60 -31t-62.5 -42.5q-35 -25 -62 -37q-23 -10 -45 -11.5t-26 27.5q-6 29 -16.5 69t-20.5 81q-12 45 -25 96q-35 18 -34.5 47z" />
<glyph unicode="K" horiz-adv-x="1110" d="M9 832v9q-1 52 9 103q10 55 26.5 109.5t29.5 103.5q6 20 12 71.5t14.5 118t16.5 142.5t18 147.5t20.5 132t21.5 95t23.5 39t26.5 -38.5l31 71q43 -27 52 -75q4 -24 4 -50.5t-4 -55.5q-9 -58 -28.5 -122.5t-33.5 -126.5q31 -23 48 -55q18 -32 22 -66q1 -10 1 -20 q1 -24 -7 -49q-10 -35 -33 -66q-17 -23 -27 -61q-9 -34 -9 -65v-7q1 -35 15 -57.5t41 -14.5q45 12 74.5 47t52.5 72t42 67t46 30l31 -41q63 111 109 178t79 106t56.5 55.5t42 23.5t35 10t36.5 16l-123 -205q-35 -43 -73.5 -81t-72.5 -80t-56.5 -92t-22.5 -116 q-4 -31 -35 -52t-67.5 -46t-67.5 -56.5t-35 -80.5q0 -59 26.5 -95t62.5 -63t74 -50.5t62 -58.5l82 -256q29 27 43.5 -3.5t21.5 -96t7 -156v-186.5t1 -188t9 -158q4 -31 -3 -50.5t-19 -22.5t-28.5 13.5t-31.5 59.5l-61 215q-16 53 -35.5 126t-36.5 138q-20 76 -41 156 q-16 70 -31.5 137.5t-37 129t-49 113.5t-66.5 91l-31 -62l-20 31q-8 -162 -45 -294t-68 -218q-4 -47 -12 -84q-8 -31 -22.5 -54.5t-37.5 -14.5q12 66 19.5 138.5t15.5 153t21.5 168.5t36.5 185l-41 82l41 286q2 18 -4.5 7t-18.5 -36.5t-27.5 -59.5t-30 -61.5t-26.5 -41.5 t-16 -2q-23 57 -24 115z" />
<glyph unicode="L" horiz-adv-x="946" d="M18 -162q4 43 66 131q0 35 4 73t7 75q2 28 2 55v18q-1 36 -13 66q-12 31 -23.5 58.5t-12.5 56t10.5 60.5t45.5 71q23 23 31 18.5t7 -9.5t-7 4t-10 58q3 20 3 37q0 24 -7 39q-12 25 -30.5 37t-36 19.5t-21.5 21.5t13 44t69 89q14 18 8 47t-15.5 63t-12.5 70v9q0 33 20 67 q8 35 13 79t12 94t20.5 107.5t36.5 119.5q0 109 23.5 178t51.5 112q35 49 78 78q31 -31 31 -56q0 -4 -1 -6q-5 -28 -23.5 -57.5t-36.5 -66.5q-13 -26 -13 -59q0 -15 2 -31q8 -39 36 -83t36 -91q4 -23 -11.5 -38.5t-33 -29.5t-28.5 -32.5t1 -49.5q1 -4 1 -9q0 -19 -11 -54 q-13 -45 -23 -109q-6 -42 -6 -92q0 -26 1 -53q5 -80 48 -168q4 -8 9.5 7t11.5 33.5t11 34t9 7.5q27 -35 28 -73v-5q0 -35 -12 -72q-14 -39 -36.5 -79t-40.5 -79q-39 -93 -51 -159q-10 -56 -10 -98v-13q2 -45 14 -76.5t24 -59.5q11 -29 17 -57q2 -11 2 -23q0 -21 -6 -46 q-4 -23 16.5 -19.5t48 15.5t54 25.5t34.5 9.5q23 -23 25 -44.5t12 -38t45 -29.5t123 -21q39 -39 72 -56.5t47 -31t3 -31t-60 -56.5q3 -22 3 -38q0 -35 -12 -49q-16 -21 -45.5 -13t-67.5 37t-73 63q-25 -41 -56 -41q-4 1 -8 1q-36 6 -71 30q-39 29 -80 82q-79 -31 -147 -47 q-40 -9 -69 -9q-20 0 -34 4q-31 10 -31 45q-1 4 0 9z" />
<glyph unicode="M" d="M-69 84q-1 22 -1 44q0 32 2 64q4 52 21 95q4 25 31.5 14.5t57.5 -26t50.5 -22.5t7.5 26q16 154 16 307.5t-16 308.5q-16 6 -29.5 20.5t-13.5 34.5q-10 50 -10 101q0 29 3 57q9 80 50 152q4 14 15.5 26t26 20.5t30.5 9.5t33 -9q4 -4 6 -13.5t4 -15.5t5 -5t7 15 q23 14 42.5 -6t19.5 -41q16 29 29.5 51.5t13.5 50.5q-8 23 -12.5 44.5t12.5 50.5q25 41 57.5 90t79.5 78q12 6 18.5 2t8.5 -13.5t0 -22.5t-7 -24q-8 -35 -24 -69.5t-33.5 -70.5t-29.5 -73q-9 -27 -8 -55q0 -10 1 -20q8 -43 22.5 -83t31 -81t34 -81t29.5 -83q25 -74 26 -148 v-20q0 -65 -6 -131q-6 -77 -12 -151q-3 -32 -3 -63q0 -42 5 -85q10 37 28.5 64.5t35 67.5t30 101.5t15.5 167.5q16 80 36.5 168t46 177t54.5 175t59 164q20 41 29.5 85t13.5 88t5.5 90.5t5.5 91.5q4 20 10 43.5t18.5 43t30.5 32t47 12.5q3 -18 3 -40q0 -39 -9 -90 q-14 -81 -28.5 -164t-16.5 -155v-9q0 -65 29 -93q12 -72 14 -142q1 -35 1 -70t-1 -71q-2 -71 -5 -143q-1 -31 -1 -62q0 -41 2 -84q0 8 16.5 7t16.5 -15q3 -31 3 -71q0 -19 -1 -41q-2 -66 -4 -136q-1 -47 -1 -92v-44q1 -66 13 -111q0 -23 6 -16t14 16q25 14 43.5 -1.5 t10.5 -37.5q-4 -59 -14.5 -96.5t-24 -71t-25.5 -71.5t-20 -97q8 14 31.5 18t31.5 -18q12 -29 15.5 -59.5t3.5 -63.5t-1.5 -65.5t3.5 -63.5q8 -72 9 -151t34 -150q7 -31 7 -66v-9q-1 -40 -40 -54q-16 -4 -24.5 2t-11.5 16t-4 23.5t-1 23.5q-4 -8 -7 -19t-8.5 -20.5 t-14.5 -15.5t-23 -2q-8 14 -9.5 29.5t-0.5 32t2 34t-3 35.5q-8 86 -31.5 169t-31.5 167q-12 78 -32.5 154.5t-41 154.5t-38 155t-25.5 154q4 10 3 23.5t-1 26t3 24.5t15 19q12 0 22.5 -8.5t17.5 -15.5t13.5 -8t10.5 13q0 121 -18.5 234.5t-35.5 234.5q-16 -106 -33.5 -210.5 t-50.5 -211.5q-33 -98 -49 -196.5t-24 -196.5q-5 -30 -5 -58q0 -18 2 -35q5 -44 13 -93q4 -10 0 -24.5t-13.5 -26t-24.5 -16.5t-36 1q-20 14 -29.5 32.5t-13.5 40t-5 43t-5 44.5q0 20 -11.5 13t-19.5 -13q-17 -12 -34 -12q-16 1 -32 11q-32 22 -40 56q-15 45 -15 90q1 4 1 8 q2 50 11 99t20 98t16 98q-41 72 -68 152t-59 158q-20 35 -28.5 70.5t-14 72.5t-11.5 74t-20 71v-383q5 -104 5 -211q0 -53 -1 -107q-4 -162 -37 -319q0 -14 -4 -29.5t-13.5 -27.5t-22.5 -17t-34 1q-2 -20 -2 -40q0 -15 1 -29q3 -34 6.5 -67.5t3.5 -67.5t-9 -69 q-8 -20 -30.5 -12t-32.5 23q-23 -78 -26 -153t-25 -146q-4 -10 -7.5 -23.5t-7.5 -24t-13 -16.5t-26 -2q-25 23 -17.5 48.5t7.5 53.5q8 63 11 131t20 132q8 40 28 78q11 22 11 46q0 17 -6 35q-33 6 -53.5 25.5t-20.5 48.5q-4 45 -11.5 99.5t-10.5 109.5z" />
<glyph unicode="N" d="M12 328q-8 23 10.5 40t40.5 1q8 -8 14.5 -15.5t6.5 15.5q7 44 7 79v9q-1 39 -4 75.5t-5 75.5q-1 13 -1 27q0 28 3 61q8 8 20.5 9.5t20.5 1.5q0 51 -15.5 110.5t-35 119.5t-34.5 119.5t-15 112t21.5 94.5t78.5 68q-1 35 -1 65q0 60 3 98q4 58 14.5 76.5t24.5 6.5t30.5 -41 t35 -69t36.5 -74q61 -170 117.5 -334t87.5 -342q14 -61 64.5 -116.5t105.5 -110t99 -111.5t49 -123q8 57 34.5 104.5t44.5 99.5q15 41 15 91q0 15 -1 29q-5 68 -63 168q-12 18 -6 37.5t20.5 37t33 31.5t34.5 27q-57 172 -65 274q-2 29 -3 53q-1 61 15 91q16 31 44 31 q10 0 21 -4q43 -15 91 -77q1 11 1 22q-1 31 -9 60q-12 39 -28 77t-32 77t-25 82q-8 16 -7 38.5t18 22.5h20q47 -39 73.5 -90t49.5 -104q16 -23 12 -46.5t-12 -46.5q14 -70 27.5 -141.5t15.5 -131.5v-15q0 -50 -12 -87q-14 -42 -51 -55q-31 -8 -30 -38.5t14 -70.5t29.5 -83 t16.5 -74q1 -9 1 -18q0 -37 -14 -71q-17 -42 -38.5 -85t-41 -86t-19.5 -88q0 -53 10 -118.5t21.5 -132t16.5 -132.5q1 -19 1 -38q0 -44 -8 -81q-8 -31 -41 -53q-16 -10 -33 -10q-19 0 -39 12q-23 12 -28 -20q-4 -26 -4 -62v-15q1 -45 2 -93v-8q0 -42 -11 -58q-8 -2 -16 -2 q-28 0 -44 24q-20 30 -12 60q1 12 1 25q1 47 -17 89q-22 54 -56 103t-71 92t-64.5 79t-36 64.5t18.5 49.5q28 21 28 50q-1 8 -3 16q-10 40 -37 84t-62 88t-49 79q-39 23 -74.5 54.5t-62.5 77.5q-27 45 -38 109q-5 30 -5 66q0 38 6 82q-16 -123 -32 -251q-11 -86 -12 -170 q0 -41 3 -81q0 -18 5 -19t12.5 5t16.5 15.5t17 9.5q14 -8 19.5 -20.5t5.5 -27t-2 -28.5t-2 -27q-23 -123 -53.5 -231.5t-38.5 -208.5q-8 -154 -23.5 -213t-33 -62.5t-33 31.5t-23.5 70q-4 14 -4 35q0 18 3 40q7 48 17 101q11 54 20 106q6 36 6 64q0 12 -1 23 q-8 49 -26.5 112.5t-38 120.5t-34 100t-14.5 56z" />
<glyph unicode="O" horiz-adv-x="802" d="M3 572q-4 19 -4 37q-1 34 13 68q20 52 107 97q57 35 110.5 59.5t96.5 63.5q49 51 92 51q25 0 40 -18q11 -13 11 -42q0 -12 -2 -26q0 -41 34 -72.5t74.5 -61.5t78.5 -61.5t44 -70.5q1 -9 1 -19q0 -28 -8 -64q-11 -50 -23 -97q-16 -55 -35 -117q25 -25 29 -61q1 -11 1 -21 q-1 -27 -7 -59q-10 -45 -26 -94.5t-32 -100.5q-23 -92 -67 -133t-80 -41q-23 0 -33 30.5t-24 67.5t-42 66q-22 23 -63 23q-10 0 -21 -1h-9q-59 0 -85 25q-28 27 -42.5 78t-23 121.5t-28.5 156.5q-10 51 -38 106.5t-39 109.5zM276 520q-1 -6 0 -14q0 -21 4 -52 q6 -44 14.5 -95.5t14.5 -79.5q5 -25 5 -58v-11v-26q0 -26 1 -50q2 -36 14.5 -59.5t47.5 -19.5q81 0 103 71q6 18 5 39q0 63 -51 157q-12 23 -8 50t15.5 56t24.5 56.5t20.5 52t2 43t-29.5 28.5q0 10 -8 10q-12 0 -23.5 -17t-23 -40.5t-22.5 -47.5t-24.5 -35t-29 -5t-33.5 43 q-17 26 -19 4z" />
<glyph unicode="P" horiz-adv-x="858" d="M3 236q-5 32 -5 69q0 62 14 135q18 106 23.5 223t7.5 212.5t7 158t24 62.5h20q4 -57 11.5 -98.5t19.5 -73t27.5 -58t33.5 -57.5q8 76 16 107q10 32 36 40q21 7 61 7h19h17q52 0 138 10q18 -2 35 -8q33 -10 57 -33q16 -23 14.5 -51.5t-10.5 -53.5q-8 -29 -24 -59 q31 -70 71 -138q40 -70 56 -138q7 -28 6 -56q0 -40 -14 -78q-24 -66 -119 -133q-23 -31 -34 -75t-31 -80q-19 -34 -57 -50q-14 -6 -33 -6q-33 0 -81 17l-102 -31l-62 -492q0 -66 -3 -137t-12 -126.5t-27.5 -84t-49.5 -10.5l-20 266l30 277q-47 35 -52 86q-2 15 -2 31 q1 36 9 76q12 56 28.5 112.5t16.5 103.5q-47 46 -60 134zM178 452.5q0 -20.5 8 -32.5t25.5 -31.5t36 -46.5t36 -56.5t25.5 -60.5q4 -18 17.5 -0.5t28 50t25.5 69.5t11 55q0 14 11.5 23.5t25.5 19t27.5 20.5t17.5 30q0 47 -19.5 85.5t-41.5 77.5q-8 16 -16.5 23.5t-24.5 7.5 t-36 -17.5t-36 -33.5t-29.5 -20.5t-25 -7.5t-20.5 -9t-17 -25q-8 -12 -15.5 -32.5t-10.5 -44t-3 -44z" />
<glyph unicode="Q" horiz-adv-x="1325" d="M12 246q-1 10 -1 22q0 41 11 100q15 74 33 148q23 84 49 180q-35 23 -40 73q-2 16 -2 34q0 37 8 81q10 66 29.5 145t35.5 159q12 45 27.5 62.5t32 15.5t35 -17.5t37 -32t37 -28.5t36.5 -10q27 8 41 14t35.5 17.5t58.5 27.5t111 43q23 8 38 10t23 10q10 0 10 -10 q35 0 48.5 -23.5t34 -60.5t64.5 -80t140 -82q23 -59 25 -107v-17q0 -39 -7 -76q-10 -45 -28.5 -89t-34.5 -93.5t-27 -108.5q-10 -50 -10 -111v-22q2 -16 2 -32q0 -37 -12 -72q-18 -52 -41 -91q39 -31 69.5 -48t22.5 -34q-12 -31 2.5 -56.5t43 -48t64.5 -44t66.5 -44t49 -48 t10.5 -56.5q-61 8 -111.5 40t-103.5 63q-100 53 -139.5 98t-55.5 76q-61 -53 -122.5 -98t-92.5 -76q-43 -47 -80 -74t-63.5 -29t-40.5 25q-12 21 -12 63q0 12 1 25q0 39 -21.5 64.5t-54 46t-70.5 37t-71.5 36t-59.5 43t-30 60.5zM245 810q1 -54 3 -112.5t3 -110.5v-20 q0 -37 -3 -55q-2 -17 -2 -33q0 -52 20 -99q25 -63 64 -124q31 -31 61 -31q23 0 52.5 20.5t60.5 51.5l20 20q-16 14 -45.5 40t-59.5 54.5t-51.5 58.5t-17.5 52q12 35 8 56.5t-10 36t-6 20.5t18 10q23 -18 46 -37q18 -16 39.5 -32.5t37.5 -32.5q23 -31 42.5 -69t49.5 -54 q45 -16 62 -31q12 18 30.5 55t38 78t35 78t19.5 55q-39 45 -59.5 112t-35 129t-28.5 112.5t-41 66.5q-8 8 -16.5 14.5t-24.5 6.5q-39 0 -83 -27t-86 -60.5t-79 -68.5t-59 -49q-3 -22 -3 -60v-21z" />
<glyph unicode="R" horiz-adv-x="880" d="M12 800q-4 30 -4 63q0 64 15 141q18 106 23 222.5t7 212t7.5 158t23.5 62.5h10q8 -57 14.5 -116.5t13.5 -115t17.5 -101.5t26.5 -77q16 70 52 155t122 193q14 -12 23.5 -28.5t21.5 -28.5q11 -12 33 -16q4 -1 10 -1q21 0 55 13q18 -2 35 -8q33 -10 57 -33 q10 -23 9.5 -51.5t-6.5 -52.5q-8 -29 -23 -60q31 -70 69 -138.5t53 -136.5q6 -27 6 -55q1 -41 -13 -81q-22 -66 -115 -132l-236 -194q43 -49 83 -99.5t66 -99.5t28 -97v-5q0 -45 -33 -88q33 -41 59 -78q23 -33 44.5 -70t29.5 -67q5 -21 5 -46q0 -13 -1 -26q-4 -41 -10 -87 t-12 -95q-4 -30 -5 -59q0 -18 2 -35q4 -47 15.5 -87t23 -77t19.5 -70t4 -63q-8 -35 -22.5 -48.5t-30.5 -17.5q-18 -4 -39 4l-82 563q0 -4 -12.5 15.5t-32 53.5t-43 77t-45.5 90q-16 39 -31.5 75t-28 65.5t-19.5 51t-3 33.5q2 27 2 52q0 31 -3 57q-5 48 -11 80q-8 37 -19 67 l-61 -491q0 -66 -3 -137.5t-12.5 -127t-28 -84t-49.5 -10.5l-20 267l31 276q-46 35 -52 86q-2 18 -2 36q0 36 6 72q10 56 26 112q12 42 12 80q0 12 -1 24q-39 47 -51 134zM195.5 1003.5q-7.5 -8.5 1.5 -20.5q8 -12 25.5 -31.5t35.5 -46t35.5 -56.5t25.5 -61q4 -18 17.5 -0.5 t28 50t25.5 69.5t11 56q0 14 -8 29.5t-16 30.5t-14.5 30.5t-2.5 31.5q4 23 18.5 39.5t28 30.5t20.5 29.5t-5 34.5q-8 16 -16.5 23t-24.5 7t-35.5 -17.5t-36.5 -33.5q-16 -16 -21 -32.5t-8.5 -35t-6.5 -38t-15 -37.5q-4 -12 -17.5 -20.5t-25.5 -15.5t-19.5 -15.5z" />
<glyph unicode="S" horiz-adv-x="1153" d="M-22 -188.5q4 16.5 4 24.5q4 12 11 30.5t15 38t17.5 35t17.5 19.5q18 4 37.5 -5t38 -19.5t35 -17.5t32.5 1q8 8 10.5 19.5t10.5 11.5q12 12 25.5 15t27.5 3t28.5 -1t30.5 3q16 8 31 16.5t31 24.5q14 8 21.5 30.5t29.5 31.5q16 8 30.5 9t31.5 1q35 8 62.5 14t41.5 20.5 t12 42t-24 77.5q-8 18 -17.5 27t-21.5 13.5t-28.5 5.5t-35.5 5q-31 8 -56.5 8t-55.5 -8q-40 -10 -74 -10h-11q-38 2 -77 18t-81 47t-95 78q-8 8 7 33.5t23 48.5q16 39 34 80t48 63q16 16 41 15t41 16q23 16 36 45t36 37q16 8 30.5 9t30.5 1t31 -4.5t31 -5.5q23 8 37 30.5 t45 30.5q18 8 39.5 4t42 -8t42 -6t40.5 10q47 34 76 34q9 0 16 -3q31 0 46 -15.5t46 -15.5q31 -4 37 -17.5t-3 -27.5t-30.5 -25.5t-44.5 -11.5q-18 -16 -39 -26q-16 -10 -34.5 -17.5t-28.5 -7.5q-30 7 -61 7t-62 -7q-18 0 -41 -6t-42.5 -14.5t-35.5 -14.5t-25 -6 q-16 8 -42.5 12.5t-49.5 -12.5q-16 -12 -20 -18t-5 -12.5t-6.5 -12.5t-19.5 -18q-8 -4 -14 -1t-11.5 6t-11.5 6t-14 -1q-16 -16 -24.5 -34.5t-16.5 -27.5q-4 -4 3 -19t20.5 -33.5t32 -35t36.5 -24.5q61 8 115 20q19 4 36 5q33 0 64 -15q8 -8 42 -10t50 -10 q31 -16 50.5 -27.5t41.5 -34.5q23 -8 38.5 -28.5t23.5 -43.5q16 -16 12 -42.5t-12 -49.5q-8 -16 -25.5 -27.5t-25.5 -33.5q-8 -16 0 -35.5t0 -36.5q-16 -47 -51 -82t-83 -51q-12 -4 -24 -1t-26.5 6t-27 6t-24.5 -1q-16 -8 -24.5 -21t-16.5 -27.5t-17 -27t-24 -16.5 q-12 -4 -23.5 0t-22.5 10.5t-22.5 10.5t-23.5 0q-86 -23 -162 -37q-24 -5 -45 -5q-44 0 -69 21q-4 4 -8.5 -3t-8.5 -17.5t-10 -17.5t-14 -3q-8 0 -4 16.5z" />
<glyph unicode="T" horiz-adv-x="1040" d="M12 819q0 23 15.5 51.5t46.5 20.5q27 -12 40 -10t21 11t13.5 20.5t17.5 19.5q23 8 56.5 13t56.5 28q14 18 8 16t-15.5 -5t-12.5 4t20 46q8 39 13 84t12 97.5t20.5 109.5t35.5 119q0 104 27 196.5t59 163.5q38 82 89 152q28 -28 28 -67q1 -9 -1 -19q-8 -51 -31 -108.5 t-45 -117.5q-16 -43 -15 -81q0 -14 2 -27q4 -23 12.5 -32t18.5 -14t18 -14.5t13 -31.5q4 -23 -6.5 -52.5t-21.5 -62.5t-19 -67q-3 -12 -2 -24q0 -21 8 -40q8 -25 8 -51q0 -20 -4 -42q-10 -50 -27.5 -95t-32 -78t-6.5 -41q18 -16 41 -11t42.5 15t35.5 20.5t24 6.5 q10 -12 13.5 -26.5t-0.5 -27.5q-4 -14 -13 -28q-8 -23 9 -18q18 6 50 12q19 4 41 3q15 1 32 -1q41 -4 84 -48q39 -39 70.5 -56t45 -30.5t2 -31t-56.5 -56.5q3 -22 3 -38q1 -35 -11 -50q-16 -22 -46 -15t-68 35.5t-73 67.5q-25 -41 -58 -41q-5 1 -9 1q-38 6 -72 30 q-41 29 -86 82q8 -82 8 -152v-28q-2 -72 -14 -136.5t-45 -82.5q0 -39 7 -75t13.5 -67.5t5.5 -58.5t-16 -45q-29 -49 -39 -82t-12 -59.5t-1 -53t-6 -60.5t-25.5 -80t-59.5 -116q-23 33 -31 50.5t-7 29t7 22.5t14.5 31.5t13.5 56.5q4 26 4 64q0 15 -1 33q0 35 4 73t7 74 q2 27 2 55v18q-1 36 -13 67t-23.5 58.5t-12.5 56t10 60.5t46 71q18 23 25.5 50t7.5 61t-4 75t-8 90q-4 12 -24.5 14t-45 5.5t-48.5 11.5t-36 31q-4 14 -25.5 22t-44 13t-40 12.5t-13.5 23.5z" />
<glyph unicode="U" horiz-adv-x="1030" d="M12 389q-4 28 -4 57q0 34 6 70q10 66 39 119q18 18 39 74.5t40.5 121t35.5 123t29 80.5q12 27 17 22t11 -18.5t15.5 -22.5t27.5 9v-10q-12 -57 -29.5 -111.5t-35 -110t-30.5 -111.5t-17 -118q0 -27 10 -23.5t24.5 23t30 51t27.5 62.5q33 4 36 -26q1 -8 1 -14 q-1 -26 -9 -62q-10 -48 -24 -105q-15 -61 -15 -112q1 -47 21 -79q22 -32 82 -32q29 -26 64 -26q7 0 14 1q43 6 85 38t74.5 83t49.5 109q-14 47 -14 92q1 31 7 61q16 76 37 154q0 31 26 57.5t56 34.5q31 22 35 56q1 11 1 23q0 23 -5 48q-8 37 -19.5 76t-11.5 73 q-8 16 15.5 23.5t46.5 7.5q16 0 29.5 -6t21.5 -14q18 -27 21 -55.5t-3 -58.5t-15 -60.5t-13 -61.5q-8 -27 -5 -52.5t7 -49t3 -47t-16 -45.5q-8 -23 -21 -41.5t-26.5 -36t-23.5 -36t-10 -40.5q8 -35 3 -45t-12.5 -15.5t-10.5 -13.5t9 -39q0 -16 18.5 -33.5t39 -35t34 -31.5 t0.5 -23q-47 -29 -64 -43t-21.5 -23t-3.5 -20.5t-9 -31t-37.5 -54t-89.5 -94.5q-47 41 -72.5 45t-39 -12t-16.5 -47t-6 -61.5t-7 -53t-18.5 -22.5t-42 28.5t-74.5 102.5q-27 14 -53.5 8t-54 -17.5t-54.5 -15.5t-53 14q-27 35 -35 74q-6 28 -6 58q0 11 1 23q3 42 12 83t17 80 q-31 -16 -57.5 2t-34.5 49z" />
<glyph unicode="V" horiz-adv-x="782" d="M5 998q5 68 58 118q-26 73 -26 110q1 7 1 12q6 36 36 52l61 -205l41 -184l82 -696q0 35 16.5 48t39 23.5t44 23.5t33.5 48q15 42 19 106q3 44 3 90q0 20 -1 40q-2 66 -6.5 125t-4.5 90q18 39 36 25.5t31 -36t22.5 -36t13.5 25.5q0 14 -6 33.5t-12.5 50.5t-8.5 77v19 q0 41 6 97q8 109 23.5 182.5t38.5 73.5q8 0 21.5 -16.5t29.5 -55.5q14 -96 18 -167q3 -47 3 -90q0 -21 -1 -41q-2 -60 -6 -117.5t-4 -127.5q-23 -16 -39 -59t-25.5 -100.5t-13.5 -119t-4 -110.5q4 -23 4 -42q0 -21 -5 -37q-9 -30 -26.5 -48t-40 -28.5t-45 -18.5t-40 -19.5 t-21.5 -31.5q3 -62 3 -108v-21q-1 -51 -5 -85t-9 -52.5t-9 -30.5q-18 23 -33.5 22.5t-27 7t-16.5 36t-5 108.5q-33 -8 -57.5 9.5t-41 48t-24.5 71.5t-11 80q-2 20 -2 38q0 16 2 32q3 32 11 49l-31 256q-8 74 -34 153q-24 80 -42 157q-14 60 -14 115q0 15 1 30z" />
<glyph unicode="W" horiz-adv-x="1101" d="M2 1055q8 23 8 49t2 51t10.5 46.5t30.5 37.5q16 8 22.5 21.5t-1.5 29.5q-39 92 -41 184.5t-10 184.5q-4 14 1 27.5t13 19.5t18.5 6t18.5 -12q18 -35 27.5 -71t14.5 -73.5t8 -75.5t11 -77q35 16 51 0q12 -27 13 -55.5t-1.5 -57t-7 -57.5t-4.5 -55q45 -16 62 -62 q31 -154 31 -313.5v-321.5q0 -8 -1.5 -25.5t-2.5 -33.5t-1 -25.5t5 2.5q31 78 56 159t56 159q0 39 -7 79t-14.5 81t-9.5 83v11q0 36 11 73q0 18 9 38t23.5 34t33 18.5t36.5 -8.5q8 23 13.5 62t27.5 61q12 14 28.5 16.5t32 -7t25.5 -25.5t6 -35q-10 -55 -10 -109q0 -30 3 -60 q9 -83 17 -169q23 -109 49.5 -211t43.5 -219q8 70 14 138.5t6 138.5q-4 -6 -1 11t12.5 47t21.5 65.5t23.5 69.5t18.5 59.5t7 33.5q0 66 -21.5 98.5t-45.5 60.5q-26 28 -42 60q-10 19 -9 49q0 22 5 50q53 4 78 62.5t34 136.5q8 71 8 145v16v31q0 60 3 100q0 23 11.5 16.5 t50.5 -6.5q4 -8 5 5.5t2 33t3 37t10 17.5q39 0 54.5 -31t7.5 -62q-8 -27 -13.5 -78t-9.5 -107t-6 -109.5t-2 -83.5q-8 -53 -9 -113.5t-1 -122.5q0 -12 -2 -27.5t-9.5 -29t-19.5 -21.5t-31 -4q16 -61 39 -122.5t23 -123.5q4 -16 1 -31.5t-12.5 -25.5t-22.5 -13t-28 9 q-5 -57 -5 -116q0 -29 1 -58q4 -88 4 -174q0 -12 1 -26.5t0 -28t-5 -23.5t-16 -14q0 27 -2 15.5t-3 -29t-3.5 -24.5t-2.5 27q10 0 11 11v-11q-8 -53 -8 -111.5t-23 -103.5q-8 -38 -8 -76q0 -19 2 -39q6 -58 17 -116q12 -56 20 -114q4 -29 4 -57.5t-4 -57.5q-31 0 -53.5 14 t-38.5 37q-16 43 -20.5 86t-5.5 88t-6 88t-20 86q-20 55 -40.5 90t-40 58.5t-37 41t-34 41t-29.5 57t-23 91.5q8 -57 11 -125q2 -41 2 -81q0 -27 -1 -55q-2 -68 -10.5 -133t-22.5 -118q-16 -39 -23.5 -90.5t-8.5 -104.5v-16q1 -45 5 -88q6 -51 17 -90q4 -8 5 -21.5t-2 -27 t-11.5 -23.5t-22.5 -10q-47 31 -73.5 79t-49.5 95q-12 14 -10 29.5t5 31t5 30.5t-10 32q-16 -8 -29.5 -13.5t-21.5 2.5q-6 -8 -6 9.5t2 47t4 67.5t4 73t1 59.5t-5 30.5q-18 23 -39 40.5t-37 34.5t-26.5 37.5t-10.5 51.5q0 19 -1 65v31q0 32 1 65q2 50 8.5 92t22.5 54 q6 48 6 77q0 11 -1 19q-3 30 -10 53t-17.5 53t-18.5 95q-12 -4 -24.5 -13t-27 -17.5t-26.5 -10.5t-24 10q-30 59 -30 125q0 63 9 142z" />
<glyph unicode="X" horiz-adv-x="1275" d="M23 1208q0 16 21.5 11t59.5 -52q35 -49 52.5 -68.5t29 -25.5t18.5 -6t23 -12q14 -16 57.5 -58.5t90.5 -88.5t87 -84t52 -46q12 -6 12 7.5t-5 34t-13 46t-11 46t2 32.5t25 8q12 14 11.5 44t1.5 60.5t13 56.5t46 34q4 72 30.5 111.5t55.5 58.5q35 22 78 24q29 -51 30 -75.5 t-13.5 -35.5t-37 -12t-44 -6.5t-34 -18.5t-4.5 -46q4 -23 -3 -38t-17 -27.5t-17.5 -26t-3.5 -31.5q4 -23 8.5 -34t10.5 -22.5t13 -29.5t20 -57q9 -28 9 -51q1 -22 -7 -40q-16 -38 -41 -66t-45.5 -49.5t-8.5 -39.5q12 -29 19.5 -40t14.5 -16.5t17.5 -7.5t28 -10t45 -28.5 t70.5 -61.5q43 -43 46 -60.5t-9 -23.5t-29.5 -5t-17.5 -3q0 -35 24.5 -61.5t59.5 -50t71.5 -48t59.5 -55.5q49 -57 87 -90t53 -52.5t3 -35t-61 -37.5q1 -11 1 -21q0 -34 -12 -42q-14 -10 -41.5 14t-67.5 79.5t-85 133.5q-39 8 -88 67.5t-94 128.5q-53 82 -105 183 q5 -55 5 -98q0 -22 -1 -40q-2 -25 -7 -44t-15 -30.5t-25.5 -11.5t-38.5 19q-4 -23 3.5 -57.5t13.5 -65.5t7 -50.5t-13 -11.5q-11 2 -21 2q-27 0 -41 -16q-20 -22 -31.5 -60t-18.5 -87.5t-22 -94.5q-8 -18 -14 -42.5t-17.5 -45t-27.5 -32t-43 -2.5q-23 61 -26 102 q-1 10 -1 20q0 29 7 52q12 31 30.5 57.5t37 55t31.5 62t13 81.5q0 27 6 48t9.5 42.5t1.5 48t-17 65.5q-12 35 -24.5 69t-13.5 55q0 22 16 27q3 1 7 1q18 0 56 -18q31 -16 34 0t-6 49.5t-24.5 78t-23.5 87.5q0 12 -24.5 42.5t-56.5 70.5t-61.5 81t-42.5 72q-8 18 -35.5 55 t-57.5 74t-52.5 67.5t-17.5 38.5z" />
<glyph unicode="Y" horiz-adv-x="989" d="M47 -786q12 43 29.5 85t35 82.5t33 83.5t21.5 89q6 23 16.5 37l19.5 26t12 24.5t-5 30.5q-6 23 5 43.5t27.5 41t32 41t17.5 44.5q0 16 -12.5 27.5t-22.5 24t-13 28t15 39.5q8 14 18.5 26.5t14.5 26t-2 28.5t-31 36q-18 10 -11 25.5t26.5 33t43 35.5t33.5 37 q12 27 10 59.5t-10 66.5t-15 67q-4 22 -4 43q0 12 1 24q4 12 -3 11t-17.5 -5t-21.5 -4t-16 14q1 10 1 21q0 32 -9 68q-12 47 -37 79q-39 53 -63.5 110.5t-40.5 117.5q-14 53 -27 105q-5 17 -5 32q0 33 20 61q-4 47 -22.5 100.5t-33.5 106.5q4 10 2 26.5t7 18.5l14 -16 q59 -98 106 -195.5t107 -193.5q33 -18 49 -49t25.5 -65t15.5 -68.5t18 -63.5q33 -31 55.5 -65.5t28.5 -82.5q2 -12 10.5 -2.5t17.5 25.5t18.5 33.5t15.5 23.5q31 10 57 39q22 25 22 58q0 5 -1 10q35 49 80 101t88 104q3 -16 3 -30q0 -19 -4 -36q-8 -31 -21 -59.5t-29.5 -58 t-30.5 -62.5q-12 -43 -26.5 -89t-45.5 -79q-2 -23 -14.5 -46.5t-10.5 -55.5q-4 -29 -21.5 -54.5t-35.5 -50t-34.5 -51.5t-20.5 -55q-4 -41 -17.5 -80t-40.5 -62q-23 -31 -20 -57v-15q0 -24 -6 -63l-103 -442q-8 -29 -33.5 -69t-58.5 -81t-67.5 -76.5t-62 -55t-42 -18.5 t-4.5 36z" />
<glyph unicode="Z" horiz-adv-x="1327" d="M16 1440q0 47 11.5 97t31.5 91q6 8 17.5 9t21.5 1q31 0 74 -21.5t92 -52t102.5 -62.5t103.5 -51t96 -20h3q44 0 78 29q33 31 78 33h9l81 -15q45 -18 81 -45.5t52 -54.5q16 16 24.5 9t4.5 -29q2 -16 -3 -22.5t-12.5 -8.5t-15.5 -3t-14 -9q-31 -47 -45.5 -105.5t-23.5 -119 t-21.5 -119t-36.5 -105.5q-4 -12 -13.5 -8t-19.5 10t-21.5 11.5t-19.5 -2.5q-27 -23 -37 -71t-24 -95q-8 -29 -13.5 -61t-12.5 -62.5t-19.5 -59t-32.5 -47.5q-35 -16 -66.5 -45.5t-50.5 -68.5q-10 -20 -17 -44t-16.5 -45.5t-21.5 -37t-33 -19.5q-12 4 -22.5 -3t-14.5 -18.5 t-1 -25.5t13 -27q20 -23 53.5 -27.5t65.5 -13.5q37 -8 76 -18t79 -17.5t79 -8.5h6l72 12q18 8 22 24.5t2 36t-6 40t-2 36.5q25 0 51.5 -22.5t52.5 -30.5q25 -23 50.5 -34t51 -18.5t51.5 -13.5t52 -18q14 -4 19.5 -16.5t2.5 -27t-11.5 -27.5t-16.5 -21q-18 0 -37.5 11 t-39 22.5t-41 18.5t-42.5 -1q-25 -25 -54.5 -31t-60 -8t-61.5 -5t-59 -20q-41 -31 -91 -31q-12 0 -24 2q-64 10 -131 42q-31 23 -63 32q-28 8 -57 8h-10q-34 -2 -66.5 -10t-65.5 -20q-6 4 -14.5 0t-15.5 -9.5t-14 -7.5t-11 7q-4 39 -30 45t-48 6q14 31 44 40t52 33 q20 51 40.5 105.5t44.5 108t52.5 100.5t67.5 82q14 14 30.5 23.5t34 17.5t34 17t30.5 26q14 57 22.5 117.5t16.5 121t19 117.5t34 113q20 86 74.5 136t118.5 83q-40 14 -74 14h-9h-15q-32 0 -68 6q-53 30 -109 42q-15 3 -29 3q-40 0 -73 -24q-32 11 -64 11h-5 q-34 -1 -65.5 -7t-62.5 -16.5t-61 -18.5q-8 14 -5 33.5t8 40t6 42t-11 40.5q-14 16 -32 21t-37 3t-36.5 -9t-32.5 -15z" />
<glyph unicode="a" horiz-adv-x="690" d="M16 257q-2 19 -1 39q1 59 15 123q20 85 48 175t37 174l30 287q-12 27 -14 67v12q1 34 11 66q12 38 42 60q20 15 50 14q16 0 34 -4q0 88 10.5 143t27 92t37 61.5t38.5 51.5q8 -16 13 -36.5t8.5 -57.5t3.5 -93.5t-5 -140.5q12 -35 26.5 -60.5t26.5 -57.5q11 -30 12 -80v-7 q0 -48 -13 -122q4 -57 5 -114.5t7 -108t19.5 -89.5t39.5 -57q0 -78 6 -142q5 -62 8 -130q1 -27 1 -57q-1 -44 -3 -93q-4 -82 -22 -192l-123 215l-31 337l-71 62l-82 -225l-41 -205l-82 -236q-31 16 -35 60v8q0 44 35 127q-62 57 -68 134zM217 819q12 31 23.5 47.5t26 13.5 t32.5 -28t41 -74l-31 185v194q-27 -90 -47 -162q-16 -61 -30.5 -114.5t-14.5 -61.5z" />
<glyph unicode="b" horiz-adv-x="1003" d="M-13 279.5q1 27.5 22.5 64.5t74.5 86q0 47 4 90q4 37 9 77t18 69q14 66 29.5 153.5t25.5 181t15 182.5q3 49 3 93q0 35 -2 65q0 31 -9 51.5t-20.5 35t-18.5 24.5t-3 23q18 57 31.5 113.5t28 108.5t34 97t50.5 80q8 8 15 14t15 6q31 0 52.5 -17t29.5 -34q7 -17 7 -33 q0 -18 -8 -34q-15 -32 -40.5 -63.5t-51.5 -64t-30 -71.5q-4 -27 4.5 -54.5t19.5 -55t22.5 -56.5t15.5 -59q1 -20 1 -41q-1 -59 -9 -119q-12 -82 -29 -161t-35 -149.5t-31 -123.5q-4 -23 0 -39.5t9.5 -28.5t7.5 -22.5t-6 -22.5q-12 -39 -16 -80q-2 -22 -1 -41q0 -18 1 -32 q3 -32 15.5 -48t30.5 -4q53 35 118 61.5t122 45t96 28t43 9.5q12 -4 -2 4t-34.5 21.5t-37 28.5t-8.5 28q12 31 52 38q19 3 41 3q24 1 48 -3q48 -8 93 -27.5t63 -41.5q12 -12 2 -25.5t-24.5 -29t-25.5 -33t-3 -35.5q39 -96 41 -188v-8q0 -86 -38 -152q-40 -70 -127 -108 q-65 -28 -157 -28q-32 0 -67 3q-8 1 -17 1q-40 0 -80 -16q-48 -20 -91 -27q-10 -2 -19 -2q-34 -1 -67 19q-42 24 -85 117q-8 18 -27.5 34.5t-39 34t-35.5 39t-15 49zM263 225.5q-5 -22.5 6.5 -49t49.5 -53.5q18 -12 50 -11t67 8t72 19.5t67 24.5q23 8 56 14t62.5 16.5 t47 24.5t9.5 37q-8 14 -18.5 46t-18.5 68t-13.5 69.5t-1.5 52.5q0 20 -10 20q-8 0 -21.5 -12.5t-26.5 -28.5t-23.5 -36.5t-10.5 -35.5q0 -16 4 -31.5t8.5 -27.5t5.5 -19.5t-8 -3.5q-16 4 -24 18.5t-16.5 31t-17.5 30t-23 13.5q-9 3 -19 3q-21 -1 -44 -13q-34 -18 -66 -40 q-37 -27 -76 -63q-23 -12 -42.5 -30.5t-24.5 -41z" />
<glyph unicode="c" horiz-adv-x="1028" d="M29 412.5q8 31.5 27.5 70.5t43 84t43 93.5t27.5 98.5q3 20 3 40q0 30 -7 61q-15 57 -15 112q0 12 1 24q4 66 29.5 122t68.5 95.5t100 56.5q4 53 24.5 97t49.5 75t61.5 47t59.5 16q16 0 33.5 -14t17.5 -37q53 -4 100 -14q41 -10 77 -25.5t48 -42.5q5 -18 5 -32 q0 -28 -18 -42q-28 -20 -76 -28t-103.5 -13.5t-93.5 -27.5q-16 -4 -19.5 -17.5t-3.5 -32v-39t-8 -34.5q-10 -43 -35 -79t-52.5 -68.5t-51 -65.5t-33.5 -71q-5 -20 -5 -42q0 -20 4 -41q9 -45 50 -104q-43 -92 -65.5 -158.5t-29.5 -110.5q-4 -28 -4 -48q0 -11 1 -20 q4 -24 16 -32q27 -18 43 -9t32.5 29.5t38 45t60.5 37.5l102 20q18 2 26.5 -14.5t14 -37t13.5 -41t26.5 -24.5t50 14.5t85.5 71.5q14 18 21 -18q3 -13 3 -28q0 -26 -8 -59q-12 -52 -49 -99.5t-111 -51.5q-31 -4 -48 -29.5t-35.5 -45t-45 -17.5t-76.5 51q-12 12 -23 -9 t-20.5 -62t-19.5 -90.5t-22.5 -91t-26 -67.5t-31.5 -17q-12 4 -16 22t-8.5 45t-14.5 55.5t-33 51.5q-35 38 -40 80q-2 20 -2 39q1 20 3 38q6 35 9.5 59.5t-11.5 28.5q-20 4 -44.5 0t-44 -4t-31 9.5t-6 43t32 97t83.5 172.5q12 14 -5 -5.5t-44 -46t-54.5 -47t-39.5 -4.5 q-12 23 -4 54.5z" />
<glyph unicode="d" horiz-adv-x="886" d="M-112 564q-6 27 -6 53q0 41 14 81q24 66 116 131q27 31 38 75t29.5 81t54.5 55q16 8 39 7q31 0 75 -13l112 21l52 491q4 61 8 127t12 119t20.5 88t30.5 35q20 0 21 -10l31 -267l-41 -276q49 -31 57 -80q4 -22 4 -45q0 -29 -6 -59q-10 -56 -27.5 -113t-17.5 -102 q47 -53 55 -141q2 -24 2 -49q0 -69 -16 -148q-18 -109 -23.5 -225.5t-7.5 -215t-7 -162t-24 -63.5q-4 0 -6 2q-4 4 -4 8q-8 53 -16 92t-18.5 70t-25 57.5t-32.5 57.5q-8 -51 -14.5 -81t-17.5 -44.5t-28.5 -18.5t-48 -5t-76.5 -3t-112 -12q-16 2 -33 10q-14 6 -27.5 15.5 t-21.5 25.5q-16 18 -16 46t6 54q8 31 20 64q-31 66 -69.5 132.5t-54.5 134.5zM94 573q-2 -14 -3 -28q-1 -31 13 -59q18 -40 41 -87q16 -16 24.5 -18t16.5 -2q23 0 41.5 14.5t40.5 36.5q14 14 26.5 19.5t24 6.5t20.5 5t21 20q4 12 9.5 33t9.5 44.5t5 44t-3 32.5 q-12 12 -30.5 31.5t-38 46t-35 56.5t-19.5 60l-10 11q-8 0 -20.5 -23.5t-25 -54.5t-22.5 -61.5t-14 -45.5q0 -16 -10.5 -24t-22.5 -16.5t-23.5 -17.5t-15.5 -24z" />
<glyph unicode="e" horiz-adv-x="1085" d="M42 454.5q1 16.5 8 36t19.5 42t24.5 40.5q-4 61 -22 127q-19 70 -18 132q0 60 30 114q31 55 123 98q-18 29 -18 50q-1 11 5 19q14 24 54.5 35t95.5 13t109 6l235 -71q16 3 30 3q38 0 59 -24q28 -33 38 -85t12 -110.5t15 -101.5q-10 -16 -9 -33.5l2 -35t-5 -32.5t-30 -23 q-22 -8 -62 -8h-10q-48 1 -132 13q-16 -23 -33.5 -47t-42 -39.5t-55.5 -15.5t-74 27l-112 -92l71 -400l195 -20l164 10l51 225l61 -31l62 103l-52 -338q-57 -39 -98 -61.5t-71.5 -31.5t-55 -3t-51.5 24q-96 -39 -151.5 -56t-84 -20.5t-38 2t-13.5 13.5q-4 88 -25.5 171 t-52 151.5t-66.5 120.5t-71 79q-12 8 -11 24.5zM217 819l31 -112q58 -7 118 -17q46 -7 89 -8q15 0 27 1q56 3 103.5 25.5t82.5 79.5q-35 14 -48.5 39t-14.5 52.5t6 57.5t16 56q-39 0 -69.5 5.5t-53.5 5.5q-47 0 -76 -9.5t-37 -31.5l-72 -72z" />
<glyph unicode="f" horiz-adv-x="1091" d="M-115 485q31 8 70 9h7q36 0 73 -5q8 12 25.5 18.5t34 19t26.5 37.5q6 15 6 40q0 15 -2 33l6 53q-10 0 -27 19q-35 39 -46 70.5t-10 60t12.5 56.5t23.5 58q12 31 13 67v18q0 27 -2 55q-3 36 -7 74t-4 73q-57 88 -57 127t37 50q22 7 53 7q21 0 45 -3q63 -7 130 -13 q39 -4 78 -4q25 0 50 2q61 4 94 39q88 -6 156.5 -27.5t95.5 -48.5t2 -54.5t-121 -43.5q-44 -4 -74 -4t-45 4q-32 8 -38.5 15t-5.5 7t-21 -22q-8 -4 -38 -12.5t-61.5 -20.5t-55 -29.5t-19.5 -40.5q6 -26 6 -46q0 -13 -2 -23q-6 -29 -17.5 -56.5t-23.5 -59.5t-14 -77v-13 q0 -41 10 -98q12 -65 51 -159q25 64 38 64q1 0 2 -1q13 -4 14 -45v-8q0 -39 -9 -95q-10 -63 -27 -114q53 -7 99 -7q23 0 44 2q62 5 108 14.5t78 18.5t50.5 5t26.5 -25q6 -18 6 -52v-19t-26.5 -12.5t-63.5 -4.5t-73 -8t-52 -26l-246 -58q-4 -20 -8 -30q-17 -84 -17 -146 q0 -21 1 -39q5 -48 5 -77q0 -15 -1 -25q-12 -31 -12 -38t12 -12t34.5 -17.5t57.5 -55.5q14 -18 16 -23.5t-3 -7.5t-12 -8t-11 -25q-2 -16 -2 -31q0 -33 12 -59q18 -37 36.5 -66.5t23.5 -57.5q1 -3 1 -7q0 -25 -30 -55q-16 -55 -48 -82q-19 -16 -38 -16l-26 8q-32 18 -53 89 q-13 46 -13 121q0 40 4 89q-23 61 -36.5 118.5t-20.5 107.5t-12 94t-13 79q-21 36 -21 69v6q2 36 12 71q-39 12 -83 32z" />
<glyph unicode="g" horiz-adv-x="1075" d="M-68 -228q5 44 20 74.5t50 30.5q57 0 80.5 -23.5t22.5 -56.5t-21.5 -67.5t-50.5 -57.5q-31 -21 -31 -44q0 -4 1 -8q7 -28 38 -49.5t76 -33.5q34 -9 65 -9q11 0 21 1q41 4 69 27q27 22 27 68v7q-2 20 15.5 21.5t47 -6.5t66.5 -21.5t70.5 -23t60.5 -9.5t37 19q27 38 27 83 q0 6 -1 13q-4 53 -23 111.5t-43 119t-32 113.5q-57 -31 -91 -31t-58.5 17.5t-45 45.5t-50.5 50q-27 14 -64 19.5t-75 14.5t-74.5 32.5t-63.5 76.5q-1 7 -1 14q0 33 15 72q19 46 43 87q29 47 66 94q4 38 4 70.5t-4 60.5q-8 55 -19.5 101t-17.5 90q-2 15 -2 30q0 32 8 68 q31 109 78 151.5t86 42.5q18 -4 26.5 -39t21.5 -74.5t41 -69.5q22 -24 62 -24q11 0 23 2q27 0 56.5 -34.5t49 -79.5t21.5 -89v-6q0 -39 -24 -57q-23 -16 -15 -29.5t30.5 -30t48.5 -37t38 -46.5q10 -30 10 -64v-12q-2 -41 -10 -81t-17.5 -77t-13.5 -63q39 -31 48.5 -87.5 t19.5 -131t36.5 -164.5t100.5 -191q16 -21 16 -44q0 -14 -7 -30q-17 -38 -56 -74t-89 -67.5t-89 -50.5q-57 -31 -125 -51.5t-137 -24.5q-16 -1 -33 -1q-51 0 -103 9q-67 13 -125 48q-53 31 -80.5 91t-41.5 113q-4 39 -9 88q-2 25 -2 48.5t2 45.5zM202 322q1 -37 36 -56 q23 -16 48 -10t49.5 23.5t44 42t32.5 47.5q14 31 16 63v17q0 24 -4 47q-6 32 -15.5 65t-17.5 64q-3 21 -3 46q0 13 1 27q1 16 1 32q0 25 -2 48q-3 39 -15 65.5t-43 26.5q-43 -4 -54 -36q-11 -30 -11 -71v-7q1 -45 6 -94q2 -20 2 -37q0 -28 -5 -52q-4 -39 -22.5 -84 t-31.5 -88q-12 -40 -12 -74v-5z" />
<glyph unicode="h" horiz-adv-x="1202" d="M28 1915q3 27 20.5 38t55.5 23q23 8 43.5 14.5t28.5 6.5q27 0 28 -17.5t-7.5 -42t-15.5 -53.5t5 -51h11q39 1 48 -53q6 -37 6 -86q0 -22 -1 -46q-4 -78 -13.5 -170t-9.5 -167l41 -215q18 -4 38 -12.5t40.5 -14.5t42 -9t43.5 5q45 76 71.5 105.5t39 30.5t16.5 -20.5t6 -51 t6 -60.5t16.5 -47t38 -12t72.5 45q61 -59 90 -94t39.5 -54.5t10.5 -31t5 -20.5t21.5 -23.5t59.5 -43.5q23 -27 10.5 -54t-37.5 -61t-47 -76q-19 -36 -20 -79q0 -8 1 -16q-27 31 -32.5 35t-1.5 -4.5t15 -19.5t19 -11q16 -16 39 -45t54 -68q50 -61 68 -136q16 -65 15 -122v-19 q-3 -66 -21.5 -109.5t-41.5 -43.5q-4 -8 -24.5 -10t-43 1t-38 10t-7.5 20q4 35 16.5 73.5t18.5 75.5q3 20 3 39q0 16 -2 32q-5 34 -36 56q-31 8 -56 30.5t-25 61.5q-16 78 -35 154q-9 34 -9 69q0 42 13 84q-16 57 -48 108.5t-72 83.5t-84 38q-7 1 -14 1q-36 0 -69 -26 q-49 -4 -81 -55t-45 -131q-10 -61 -10 -133q0 -21 1 -45q4 -98 22 -199q8 -49 22.5 -97t28 -91t22.5 -77t7 -55.5t-20.5 -27.5t-59.5 10q-18 12 -39.5 31.5t-43 24.5t-45 -13t-46.5 -84l-10 246l31 287l-21 20q-31 45 -30 102q-23 31 -38.5 61t-23.5 52q-8 31 -8 70 q0 22 3 48q7 70 20 136q14 76 36 156q1 22 1 46q0 46 -5 100q-8 80 -19 163.5t-22.5 160t-15.5 134.5q-8 88 -13 138q-3 31 -3 54q0 13 1 23z" />
<glyph unicode="i" horiz-adv-x="608" d="M7 976v11q0 27 4 57q5 36 16 74q23 84 67 182q18 -12 40 -31.5t43.5 -24.5t45 13.5t45.5 83.5l11 -245l-41 -328q29 -35 53 -70q23 -29 42 -63.5t27 -61.5q6 -32 6 -71q0 -22 -2 -48q-6 -68 -18 -135q-14 -76 -37 -155q-12 -74 -12 -133v-17q2 -66 11 -115t17.5 -81.5 t5.5 -53t-25 -27.5q-17 -5 -51 -5h-22q-43 0 -56 5t-13 26.5t9 64.5t13 121l-51 246q-16 4 -31 9q-14 4 -18 28q-1 6 -1 14q0 22 9 58q12 48 51 136l-10 518q-10 -31 -22 -51q-10 -16 -25.5 -27.5t-34.5 1.5q-23 12 -34 37.5t-12 57.5zM22 1636q7 38 19 74q12 39 33 82 q-12 31 -28.5 61.5t-19.5 61.5v8q0 27 17 53q20 30 82 62l51 -154l103 -41q31 -23 50 -53q14 -23 15 -58q0 -11 -2 -22q-6 -49 -44 -126t-122 -191q-41 29 -74 59q-29 27 -52 56.5t-27 58.5q-4 17 -4 35q0 16 3 34z" />
<glyph unicode="j" horiz-adv-x="915" d="M23 -51q14 43 43.5 27.5t61.5 -73t59.5 -147.5t39.5 -196q4 -35 21.5 -53.5t44 -26.5t57.5 -7t62 5v66q0 98 -4 190q-2 51 -6.5 105.5t-11.5 104.5t-17.5 94t-22.5 75l-51 245q-16 8 -30.5 15.5t-18.5 30.5q-1 6 -1 14q0 22 9 56q12 46 51 130q2 28 2 50q0 40 -7 63 q-11 35 -27.5 49t-34 18t-24.5 17.5t-1 45.5t37 103q-23 12 -34 28.5t-12 35t4 39t15 41.5q23 47 66 98q31 -27 50 -45.5t33.5 -52t29 -95t32.5 -172.5q29 -33 54 -65q23 -29 42 -60.5t27 -58.5q9 -46 9 -117v-14q-1 -80 -7 -158q-8 -90 -22 -190q8 -80 17 -149.5t15.5 -136 t8.5 -134.5v-25q0 -57 -7 -118q-16 -104 -54 -181t-85 -123.5t-95 -58.5q-15 -4 -29 -4q-30 0 -54 18q-27 18 -55.5 67.5t-58 134.5t-60.5 207t-61 288zM65.5 1622q0.5 29 22 55.5t56 47t69.5 24.5q39 0 71.5 -26.5t41.5 -96.5l92 -31q30 -69 30 -106v-11 q-6 -36 -30.5 -54.5t-60 -31t-62.5 -42.5q-35 -25 -62 -37q-23 -10 -45 -11.5t-26 27.5q-6 29 -16.5 69t-20.5 81q-12 45 -25 96q-35 18 -34.5 47z" />
<glyph unicode="k" horiz-adv-x="1110" d="M9 832v9q-1 52 9 103q10 55 26.5 109.5t29.5 103.5q6 20 12 71.5t14.5 118t16.5 142.5t18 147.5t20.5 132t21.5 95t23.5 39t26.5 -38.5l31 71q43 -27 52 -75q4 -24 4 -50.5t-4 -55.5q-9 -58 -28.5 -122.5t-33.5 -126.5q31 -23 48 -55q18 -32 22 -66q1 -10 1 -20 q1 -24 -7 -49q-10 -35 -33 -66q-17 -23 -27 -61q-9 -34 -9 -65v-7q1 -35 15 -57.5t41 -14.5q45 12 74.5 47t52.5 72t42 67t46 30l31 -41q63 111 109 178t79 106t56.5 55.5t42 23.5t35 10t36.5 16l-123 -205q-35 -43 -73.5 -81t-72.5 -80t-56.5 -92t-22.5 -116 q-4 -31 -35 -52t-67.5 -46t-67.5 -56.5t-35 -80.5q0 -59 26.5 -95t62.5 -63t74 -50.5t62 -58.5l82 -256q29 27 43.5 -3.5t21.5 -96t7 -156v-186.5t1 -188t9 -158q4 -31 -3 -50.5t-19 -22.5t-28.5 13.5t-31.5 59.5l-61 215q-16 53 -35.5 126t-36.5 138q-20 76 -41 156 q-16 70 -31.5 137.5t-37 129t-49 113.5t-66.5 91l-31 -62l-20 31q-8 -162 -45 -294t-68 -218q-4 -47 -12 -84q-8 -31 -22.5 -54.5t-37.5 -14.5q12 66 19.5 138.5t15.5 153t21.5 168.5t36.5 185l-41 82l41 286q2 18 -4.5 7t-18.5 -36.5t-27.5 -59.5t-30 -61.5t-26.5 -41.5 t-16 -2q-23 57 -24 115z" />
<glyph unicode="l" horiz-adv-x="946" d="M18 -162q4 43 66 131q0 35 4 73t7 75q2 28 2 55v18q-1 36 -13 66q-12 31 -23.5 58.5t-12.5 56t10.5 60.5t45.5 71q23 23 31 18.5t7 -9.5t-7 4t-10 58q3 20 3 37q0 24 -7 39q-12 25 -30.5 37t-36 19.5t-21.5 21.5t13 44t69 89q14 18 8 47t-15.5 63t-12.5 70v9q0 33 20 67 q8 35 13 79t12 94t20.5 107.5t36.5 119.5q0 109 23.5 178t51.5 112q35 49 78 78q31 -31 31 -56q0 -4 -1 -6q-5 -28 -23.5 -57.5t-36.5 -66.5q-13 -26 -13 -59q0 -15 2 -31q8 -39 36 -83t36 -91q4 -23 -11.5 -38.5t-33 -29.5t-28.5 -32.5t1 -49.5q1 -4 1 -9q0 -19 -11 -54 q-13 -45 -23 -109q-6 -42 -6 -92q0 -26 1 -53q5 -80 48 -168q4 -8 9.5 7t11.5 33.5t11 34t9 7.5q27 -35 28 -73v-5q0 -35 -12 -72q-14 -39 -36.5 -79t-40.5 -79q-39 -93 -51 -159q-10 -56 -10 -98v-13q2 -45 14 -76.5t24 -59.5q11 -29 17 -57q2 -11 2 -23q0 -21 -6 -46 q-4 -23 16.5 -19.5t48 15.5t54 25.5t34.5 9.5q23 -23 25 -44.5t12 -38t45 -29.5t123 -21q39 -39 72 -56.5t47 -31t3 -31t-60 -56.5q3 -22 3 -38q0 -35 -12 -49q-16 -21 -45.5 -13t-67.5 37t-73 63q-25 -41 -56 -41q-4 1 -8 1q-36 6 -71 30q-39 29 -80 82q-79 -31 -147 -47 q-40 -9 -69 -9q-20 0 -34 4q-31 10 -31 45q-1 4 0 9z" />
<glyph unicode="m" d="M-69 84q-1 22 -1 44q0 32 2 64q4 52 21 95q4 25 31.5 14.5t57.5 -26t50.5 -22.5t7.5 26q16 154 16 307.5t-16 308.5q-16 6 -29.5 20.5t-13.5 34.5q-10 50 -10 101q0 29 3 57q9 80 50 152q4 14 15.5 26t26 20.5t30.5 9.5t33 -9q4 -4 6 -13.5t4 -15.5t5 -5t7 15 q23 14 42.5 -6t19.5 -41q16 29 29.5 51.5t13.5 50.5q-8 23 -12.5 44.5t12.5 50.5q25 41 57.5 90t79.5 78q12 6 18.5 2t8.5 -13.5t0 -22.5t-7 -24q-8 -35 -24 -69.5t-33.5 -70.5t-29.5 -73q-9 -27 -8 -55q0 -10 1 -20q8 -43 22.5 -83t31 -81t34 -81t29.5 -83q25 -74 26 -148 v-20q0 -65 -6 -131q-6 -77 -12 -151q-3 -32 -3 -63q0 -42 5 -85q10 37 28.5 64.5t35 67.5t30 101.5t15.5 167.5q16 80 36.5 168t46 177t54.5 175t59 164q20 41 29.5 85t13.5 88t5.5 90.5t5.5 91.5q4 20 10 43.5t18.5 43t30.5 32t47 12.5q3 -18 3 -40q0 -39 -9 -90 q-14 -81 -28.5 -164t-16.5 -155v-9q0 -65 29 -93q12 -72 14 -142q1 -35 1 -70t-1 -71q-2 -71 -5 -143q-1 -31 -1 -62q0 -41 2 -84q0 8 16.5 7t16.5 -15q3 -31 3 -71q0 -19 -1 -41q-2 -66 -4 -136q-1 -47 -1 -92v-44q1 -66 13 -111q0 -23 6 -16t14 16q25 14 43.5 -1.5 t10.5 -37.5q-4 -59 -14.5 -96.5t-24 -71t-25.5 -71.5t-20 -97q8 14 31.5 18t31.5 -18q12 -29 15.5 -59.5t3.5 -63.5t-1.5 -65.5t3.5 -63.5q8 -72 9 -151t34 -150q7 -31 7 -66v-9q-1 -40 -40 -54q-16 -4 -24.5 2t-11.5 16t-4 23.5t-1 23.5q-4 -8 -7 -19t-8.5 -20.5 t-14.5 -15.5t-23 -2q-8 14 -9.5 29.5t-0.5 32t2 34t-3 35.5q-8 86 -31.5 169t-31.5 167q-12 78 -32.5 154.5t-41 154.5t-38 155t-25.5 154q4 10 3 23.5t-1 26t3 24.5t15 19q12 0 22.5 -8.5t17.5 -15.5t13.5 -8t10.5 13q0 121 -18.5 234.5t-35.5 234.5q-16 -106 -33.5 -210.5 t-50.5 -211.5q-33 -98 -49 -196.5t-24 -196.5q-5 -30 -5 -58q0 -18 2 -35q5 -44 13 -93q4 -10 0 -24.5t-13.5 -26t-24.5 -16.5t-36 1q-20 14 -29.5 32.5t-13.5 40t-5 43t-5 44.5q0 20 -11.5 13t-19.5 -13q-17 -12 -34 -12q-16 1 -32 11q-32 22 -40 56q-15 45 -15 90q1 4 1 8 q2 50 11 99t20 98t16 98q-41 72 -68 152t-59 158q-20 35 -28.5 70.5t-14 72.5t-11.5 74t-20 71v-383q5 -104 5 -211q0 -53 -1 -107q-4 -162 -37 -319q0 -14 -4 -29.5t-13.5 -27.5t-22.5 -17t-34 1q-2 -20 -2 -40q0 -15 1 -29q3 -34 6.5 -67.5t3.5 -67.5t-9 -69 q-8 -20 -30.5 -12t-32.5 23q-23 -78 -26 -153t-25 -146q-4 -10 -7.5 -23.5t-7.5 -24t-13 -16.5t-26 -2q-25 23 -17.5 48.5t7.5 53.5q8 63 11 131t20 132q8 40 28 78q11 22 11 46q0 17 -6 35q-33 6 -53.5 25.5t-20.5 48.5q-4 45 -11.5 99.5t-10.5 109.5z" />
<glyph unicode="n" d="M12 328q-8 23 10.5 40t40.5 1q8 -8 14.5 -15.5t6.5 15.5q7 44 7 79v9q-1 39 -4 75.5t-5 75.5q-1 13 -1 27q0 28 3 61q8 8 20.5 9.5t20.5 1.5q0 51 -15.5 110.5t-35 119.5t-34.5 119.5t-15 112t21.5 94.5t78.5 68q-1 35 -1 65q0 60 3 98q4 58 14.5 76.5t24.5 6.5t30.5 -41 t35 -69t36.5 -74q61 -170 117.5 -334t87.5 -342q14 -61 64.5 -116.5t105.5 -110t99 -111.5t49 -123q8 57 34.5 104.5t44.5 99.5q15 41 15 91q0 15 -1 29q-5 68 -63 168q-12 18 -6 37.5t20.5 37t33 31.5t34.5 27q-57 172 -65 274q-2 29 -3 53q-1 61 15 91q16 31 44 31 q10 0 21 -4q43 -15 91 -77q1 11 1 22q-1 31 -9 60q-12 39 -28 77t-32 77t-25 82q-8 16 -7 38.5t18 22.5h20q47 -39 73.5 -90t49.5 -104q16 -23 12 -46.5t-12 -46.5q14 -70 27.5 -141.5t15.5 -131.5v-15q0 -50 -12 -87q-14 -42 -51 -55q-31 -8 -30 -38.5t14 -70.5t29.5 -83 t16.5 -74q1 -9 1 -18q0 -37 -14 -71q-17 -42 -38.5 -85t-41 -86t-19.5 -88q0 -53 10 -118.5t21.5 -132t16.5 -132.5q1 -19 1 -38q0 -44 -8 -81q-8 -31 -41 -53q-16 -10 -33 -10q-19 0 -39 12q-23 12 -28 -20q-4 -26 -4 -62v-15q1 -45 2 -93v-8q0 -42 -11 -58q-8 -2 -16 -2 q-28 0 -44 24q-20 30 -12 60q1 12 1 25q1 47 -17 89q-22 54 -56 103t-71 92t-64.5 79t-36 64.5t18.5 49.5q28 21 28 50q-1 8 -3 16q-10 40 -37 84t-62 88t-49 79q-39 23 -74.5 54.5t-62.5 77.5q-27 45 -38 109q-5 30 -5 66q0 38 6 82q-16 -123 -32 -251q-11 -86 -12 -170 q0 -41 3 -81q0 -18 5 -19t12.5 5t16.5 15.5t17 9.5q14 -8 19.5 -20.5t5.5 -27t-2 -28.5t-2 -27q-23 -123 -53.5 -231.5t-38.5 -208.5q-8 -154 -23.5 -213t-33 -62.5t-33 31.5t-23.5 70q-4 14 -4 35q0 18 3 40q7 48 17 101q11 54 20 106q6 36 6 64q0 12 -1 23 q-8 49 -26.5 112.5t-38 120.5t-34 100t-14.5 56z" />
<glyph unicode="o" horiz-adv-x="802" d="M3 572q-4 19 -4 37q-1 34 13 68q20 52 107 97q57 35 110.5 59.5t96.5 63.5q49 51 92 51q25 0 40 -18q11 -13 11 -42q0 -12 -2 -26q0 -41 34 -72.5t74.5 -61.5t78.5 -61.5t44 -70.5q1 -9 1 -19q0 -28 -8 -64q-11 -50 -23 -97q-16 -55 -35 -117q25 -25 29 -61q1 -11 1 -21 q-1 -27 -7 -59q-10 -45 -26 -94.5t-32 -100.5q-23 -92 -67 -133t-80 -41q-23 0 -33 30.5t-24 67.5t-42 66q-22 23 -63 23q-10 0 -21 -1h-9q-59 0 -85 25q-28 27 -42.5 78t-23 121.5t-28.5 156.5q-10 51 -38 106.5t-39 109.5zM276 520q-1 -6 0 -14q0 -21 4 -52 q6 -44 14.5 -95.5t14.5 -79.5q5 -25 5 -58v-11v-26q0 -26 1 -50q2 -36 14.5 -59.5t47.5 -19.5q81 0 103 71q6 18 5 39q0 63 -51 157q-12 23 -8 50t15.5 56t24.5 56.5t20.5 52t2 43t-29.5 28.5q0 10 -8 10q-12 0 -23.5 -17t-23 -40.5t-22.5 -47.5t-24.5 -35t-29 -5t-33.5 43 q-17 26 -19 4z" />
<glyph unicode="p" horiz-adv-x="858" d="M3 236q-5 33 -5 69q0 62 14 135q18 106 23.5 223t7.5 212.5t7 158t24 62.5h20q4 -57 11.5 -98.5t19.5 -73t27.5 -58t33.5 -57.5q8 76 16.5 107.5t35.5 39.5q21 7 61 7h19h17q52 0 138 10q18 -2 35 -8q33 -10 57 -33q16 -23 14.5 -51.5t-10.5 -53.5q-8 -29 -24 -59 q31 -70 70.5 -138.5t56.5 -137.5q6 -28 6 -56q0 -39 -14 -78q-23 -67 -119 -133q-23 -31 -34 -75t-30.5 -79.5t-57.5 -50.5q-14 -6 -33 -6q-33 0 -81 17l-102 -31l-62 -492q0 -66 -3 -137t-12 -126.5t-27.5 -84t-49.5 -10.5l-20 266l30 277q-47 35 -52 86q-2 15 -2 31 q0 37 9 76q11 57 28 113t17 103q-47 47 -60 134zM178 452.5q0 -20.5 8 -32.5t25.5 -31.5t36 -46.5t36 -56.5t25.5 -60.5q4 -18 17.5 -0.5t28 50t25.5 69.5t11 55q0 14 11.5 23.5t25.5 19t27.5 20.5t17.5 30q0 47 -19.5 85.5t-41.5 77.5q-8 16 -16.5 23.5t-24.5 7.5 t-36 -17.5t-36 -33.5t-29.5 -20.5t-25 -7.5t-20.5 -9t-17 -25q-8 -12 -15.5 -32.5t-10.5 -44t-3 -44z" />
<glyph unicode="q" horiz-adv-x="1325" d="M12 246q-1 10 -1 22q0 41 11 100q15 74 33 148q23 84 49 180q-35 23 -40 73q-2 16 -2 34q0 37 8 81q10 66 29.5 145t35.5 159q12 45 27.5 62.5t32 15.5t35 -17.5t37 -32t37 -28.5t36.5 -10q27 8 41 14t35.5 17.5t58.5 27.5t111 43q23 8 38 10t23 10q10 0 10 -10 q35 0 48.5 -23.5t34 -60.5t64.5 -80t140 -82q23 -59 25 -107v-17q0 -39 -7 -76q-10 -45 -28.5 -89t-34.5 -93.5t-27 -108.5q-10 -50 -10 -111v-22q2 -16 2 -32q0 -37 -12 -72q-18 -52 -41 -91q39 -31 69.5 -48t22.5 -34q-12 -31 2.5 -56.5t43 -48t64.5 -44t66.5 -44t49 -48 t10.5 -56.5q-61 8 -111.5 40t-103.5 63q-100 53 -139.5 98t-55.5 76q-61 -53 -122.5 -98t-92.5 -76q-43 -47 -80 -74t-63.5 -29t-40.5 25q-12 21 -12 63q0 12 1 25q0 39 -21.5 64.5t-54 46t-70.5 37t-71.5 36t-59.5 43t-30 60.5zM245 810q1 -54 3 -112.5t3 -110.5v-20 q0 -37 -3 -55q-2 -17 -2 -33q0 -52 20 -99q25 -63 64 -124q31 -31 61 -31q23 0 52.5 20.5t60.5 51.5l20 20q-16 14 -45.5 40t-59.5 54.5t-51.5 58.5t-17.5 52q12 35 8 56.5t-10 36t-6 20.5t18 10q23 -18 46 -37q18 -16 39.5 -32.5t37.5 -32.5q23 -31 42.5 -69t49.5 -54 q45 -16 62 -31q12 18 30.5 55t38 78t35 78t19.5 55q-39 45 -59.5 112t-35 129t-28.5 112.5t-41 66.5q-8 8 -16.5 14.5t-24.5 6.5q-39 0 -83 -27t-86 -60.5t-79 -68.5t-59 -49q-3 -22 -3 -60v-21z" />
<glyph unicode="r" horiz-adv-x="880" d="M12 800q-4 30 -4 63q0 64 15 141q18 106 23 222.5t7 212t7.5 158t23.5 62.5h10q8 -57 14.5 -116.5t13.5 -115t17.5 -101.5t26.5 -77q16 70 52 155t122 193q14 -12 23.5 -28.5t21.5 -28.5q11 -12 33 -16q4 -1 10 -1q21 0 55 13q18 -2 35 -8q33 -10 57 -33 q10 -23 9.5 -51.5t-6.5 -52.5q-8 -29 -23 -60q31 -70 69 -138.5t53 -136.5q6 -27 6 -55q1 -41 -13 -81q-22 -66 -115 -132l-236 -194q43 -49 83 -99.5t66 -99.5t28 -97v-5q0 -45 -33 -88q33 -41 59 -78q23 -33 44.5 -70t29.5 -67q5 -21 5 -46q0 -13 -1 -26q-4 -41 -10 -87 t-12 -95q-4 -30 -5 -59q0 -18 2 -35q4 -47 15.5 -87t23 -77t19.5 -70t4 -63q-8 -35 -22.5 -48.5t-30.5 -17.5q-18 -4 -39 4l-82 563q0 -4 -12.5 15.5t-32 53.5t-43 77t-45.5 90q-16 39 -31.5 75t-28 65.5t-19.5 51t-3 33.5q2 27 2 52q0 31 -3 57q-5 48 -11 80q-8 37 -19 67 l-61 -491q0 -66 -3 -137.5t-12.5 -127t-28 -84t-49.5 -10.5l-20 267l31 276q-46 35 -52 86q-2 18 -2 36q0 36 6 72q10 56 26 112q12 42 12 80q0 12 -1 24q-39 47 -51 134zM195.5 1003.5q-7.5 -8.5 1.5 -20.5q8 -12 25.5 -31.5t35.5 -46t35.5 -56.5t25.5 -61q4 -18 17.5 -0.5 t28 50t25.5 69.5t11 56q0 14 -8 29.5t-16 30.5t-14.5 30.5t-2.5 31.5q4 23 18.5 39.5t28 30.5t20.5 29.5t-5 34.5q-8 16 -16.5 23t-24.5 7t-35.5 -17.5t-36.5 -33.5q-16 -16 -21 -32.5t-8.5 -35t-6.5 -38t-15 -37.5q-4 -12 -17.5 -20.5t-25.5 -15.5t-19.5 -15.5z" />
<glyph unicode="s" horiz-adv-x="1153" d="M-22 -188.5q4 16.5 4 24.5q4 12 11 30.5t15 38t17.5 35t17.5 19.5q18 4 37.5 -5t38 -19.5t35 -17.5t32.5 1q8 8 10.5 19.5t10.5 11.5q12 12 25.5 15t27.5 3t28.5 -1t30.5 3q16 8 31 16.5t31 24.5q14 8 21.5 30.5t29.5 31.5q16 8 30.5 9t31.5 1q35 8 62.5 14t41.5 20.5 t12 42t-24 77.5q-8 18 -17.5 27t-21.5 13.5t-28.5 5.5t-35.5 5q-31 8 -56.5 8t-55.5 -8q-40 -10 -74 -10h-11q-38 2 -77 18t-81 47t-95 78q-8 8 7 33.5t23 48.5q16 39 34 80t48 63q16 16 41 15t41 16q23 16 36 45t36 37q16 8 30.5 9t30.5 1t31 -4.5t31 -5.5q23 8 37 30.5 t45 30.5q18 8 39.5 4t42 -8t42 -6t40.5 10q47 34 76 34q9 0 16 -3q31 0 46 -15.5t46 -15.5q31 -4 37 -17.5t-3 -27.5t-30.5 -25.5t-44.5 -11.5q-18 -16 -39 -26q-16 -10 -34.5 -17.5t-28.5 -7.5q-30 7 -61 7t-62 -7q-18 0 -41 -6t-42.5 -14.5t-35.5 -14.5t-25 -6 q-16 8 -42.5 12.5t-49.5 -12.5q-16 -12 -20 -18t-5 -12.5t-6.5 -12.5t-19.5 -18q-8 -4 -14 -1t-11.5 6t-11.5 6t-14 -1q-16 -16 -24.5 -34.5t-16.5 -27.5q-4 -4 3 -19t20.5 -33.5t32 -35t36.5 -24.5q61 8 115 20q19 4 36 5q33 0 64 -15q8 -8 42 -10t50 -10 q31 -16 50.5 -27.5t41.5 -34.5q23 -8 38.5 -28.5t23.5 -43.5q16 -16 12 -42.5t-12 -49.5q-8 -16 -25.5 -27.5t-25.5 -33.5q-8 -16 0 -35.5t0 -36.5q-16 -47 -51 -82t-83 -51q-12 -4 -24 -1t-26.5 6t-27 6t-24.5 -1q-16 -8 -24.5 -21t-16.5 -27.5t-17 -27t-24 -16.5 q-12 -4 -23.5 0t-22.5 10.5t-22.5 10.5t-23.5 0q-86 -23 -162 -37q-24 -5 -45 -5q-44 0 -69 21q-4 4 -8.5 -3t-8.5 -17.5t-10 -17.5t-14 -3q-8 0 -4 16.5z" />
<glyph unicode="t" horiz-adv-x="1040" d="M12 819q0 23 15.5 51.5t46.5 20.5q27 -12 40 -10t21 11t13.5 20.5t17.5 19.5q23 8 56.5 13t56.5 28q14 18 8 16t-15.5 -5t-12.5 4t20 46q8 39 13 84t12 97.5t20.5 109.5t35.5 119q0 104 27 196.5t59 163.5q38 82 89 152q28 -28 28 -67q1 -9 -1 -19q-8 -51 -31 -108.5 t-45 -117.5q-16 -43 -15 -81q0 -14 2 -27q4 -23 12.5 -32t18.5 -14t18 -14.5t13 -31.5q4 -23 -6.5 -52.5t-21.5 -62.5t-19 -67q-3 -12 -2 -24q0 -21 8 -40q8 -25 8 -51q0 -20 -4 -42q-10 -50 -27.5 -95t-32 -78t-6.5 -41q18 -16 41 -11t42.5 15t35.5 20.5t24 6.5 q10 -12 13.5 -26.5t-0.5 -27.5q-4 -14 -13 -28q-8 -23 9 -18q18 6 50 12q19 4 41 3q15 1 32 -1q41 -4 84 -48q39 -39 70.5 -56t45 -30.5t2 -31t-56.5 -56.5q3 -22 3 -38q1 -35 -11 -50q-16 -22 -46 -15t-68 35.5t-73 67.5q-25 -41 -58 -41q-5 1 -9 1q-38 6 -72 30 q-41 29 -86 82q8 -82 8 -152v-28q-2 -72 -14 -136.5t-45 -82.5q0 -39 7 -75t13.5 -67.5t5.5 -58.5t-16 -45q-29 -49 -39 -82t-12 -59.5t-1 -53t-6 -60.5t-25.5 -80t-59.5 -116q-23 33 -31 50.5t-7 29t7 22.5t14.5 31.5t13.5 56.5q4 26 4 64q0 15 -1 33q0 35 4 73t7 74 q2 27 2 55v18q-1 36 -13 67t-23.5 58.5t-12.5 56t10 60.5t46 71q18 23 25.5 50t7.5 61t-4 75t-8 90q-4 12 -24.5 14t-45 5.5t-48.5 11.5t-36 31q-4 14 -25.5 22t-44 13t-40 12.5t-13.5 23.5z" />
<glyph unicode="u" horiz-adv-x="1030" d="M12 389q-4 28 -4 57q0 34 6 70q10 66 39 119q18 18 39 74.5t40.5 121t35.5 123t29 80.5q12 27 17 22t11 -18.5t15.5 -22.5t27.5 9v-10q-12 -57 -29.5 -111.5t-35 -110t-30.5 -111.5t-17 -118q0 -27 10 -23.5t24.5 23t30 51t27.5 62.5q33 4 36 -26q1 -8 1 -14 q-1 -26 -9 -62q-10 -48 -24 -105q-15 -61 -15 -112q1 -47 21 -79q22 -32 82 -32q29 -26 64 -26q7 0 14 1q43 6 85 38t74.5 83t49.5 109q-14 47 -14 92q1 31 7 61q16 76 37 154q0 31 26 57.5t56 34.5q31 22 35 56q1 11 1 23q0 23 -5 48q-8 37 -19.5 76t-11.5 73 q-8 16 15.5 23.5t46.5 7.5q16 0 29.5 -6t21.5 -14q18 -27 21 -55.5t-3 -58.5t-15 -60.5t-13 -61.5q-8 -27 -5 -52.5t7 -49t3 -47t-16 -45.5q-8 -23 -21 -41.5t-26.5 -36t-23.5 -36t-10 -40.5q8 -35 3 -45t-12.5 -15.5t-10.5 -13.5t9 -39q0 -16 18.5 -33.5t39 -35t34 -31.5 t0.5 -23q-47 -29 -64 -43t-21.5 -23t-3.5 -20.5t-9 -31t-37.5 -54t-89.5 -94.5q-47 41 -72.5 45t-39 -12t-16.5 -47t-6 -61.5t-7 -53t-18.5 -22.5t-42 28.5t-74.5 102.5q-27 14 -53.5 8t-54 -17.5t-54.5 -15.5t-53 14q-27 35 -35 74q-6 28 -6 58q0 11 1 23q3 42 12 83t17 80 q-31 -16 -57.5 2t-34.5 49z" />
<glyph unicode="v" horiz-adv-x="782" d="M5 998q5 68 58 118q-26 73 -26 110q1 7 1 12q6 36 36 52l61 -205l41 -184l82 -696q0 35 16.5 48t39 23.5t44 23.5t33.5 48q15 42 19 106q3 44 3 90q0 20 -1 40q-2 66 -6.5 125t-4.5 90q18 39 36 25.5t31 -36t22.5 -36t13.5 25.5q0 14 -6 33.5t-12.5 50.5t-8.5 77v19 q0 41 6 97q8 109 23.5 182.5t38.5 73.5q8 0 21.5 -16.5t29.5 -55.5q14 -96 18 -167q3 -47 3 -90q0 -21 -1 -41q-2 -60 -6 -117.5t-4 -127.5q-23 -16 -39 -59t-25.5 -100.5t-13.5 -119t-4 -110.5q4 -23 4 -42q0 -21 -5 -37q-9 -30 -26.5 -48t-40 -28.5t-45 -18.5t-40 -19.5 t-21.5 -31.5q3 -62 3 -108v-21q-1 -51 -5 -85t-9 -52.5t-9 -30.5q-18 23 -33.5 22.5t-27 7t-16.5 36t-5 108.5q-33 -8 -57.5 9.5t-41 48t-24.5 71.5t-11 80q-2 20 -2 38q0 16 2 32q3 32 11 49l-31 256q-8 74 -34 153q-24 80 -42 157q-14 60 -14 115q0 15 1 30z" />
<glyph unicode="w" horiz-adv-x="1101" d="M2 1055q8 23 8 49t2 51t10.5 46.5t30.5 37.5q16 8 22.5 21.5t-1.5 29.5q-39 92 -41 184.5t-10 184.5q-4 14 1 27.5t13 19.5t18.5 6t18.5 -12q18 -35 27.5 -71t14.5 -73.5t8 -75.5t11 -77q35 16 51 0q12 -27 13 -55.5t-1.5 -57t-7 -57.5t-4.5 -55q45 -16 62 -62 q31 -154 31 -313.5v-321.5q0 -8 -1.5 -25.5t-2.5 -33.5t-1 -25.5t5 2.5q31 78 56 159t56 159q0 39 -7 79t-14.5 81t-9.5 83v11q0 36 11 73q0 18 9 38t23.5 34t33 18.5t36.5 -8.5q8 23 13.5 62t27.5 61q12 14 28.5 16.5t32 -7t25.5 -25.5t6 -35q-10 -55 -10 -109q0 -30 3 -60 q9 -83 17 -169q23 -109 49.5 -211t43.5 -219q8 70 14 138.5t6 138.5q-4 -6 -1 11t12.5 47t21.5 65.5t23.5 69.5t18.5 59.5t7 33.5q0 66 -21.5 98.5t-45.5 60.5q-26 28 -42 60q-10 19 -9 49q0 22 5 50q53 4 78 62.5t34 136.5q8 71 8 145v16v31q0 60 3 100q0 23 11.5 16.5 t50.5 -6.5q4 -8 5 5.5t2 33t3 37t10 17.5q39 0 54.5 -31t7.5 -62q-8 -27 -13.5 -78t-9.5 -107t-6 -109.5t-2 -83.5q-8 -53 -9 -113.5t-1 -122.5q0 -12 -2 -27.5t-9.5 -29t-19.5 -21.5t-31 -4q16 -61 39 -122.5t23 -123.5q4 -16 1 -31.5t-12.5 -25.5t-22.5 -13t-28 9 q-5 -57 -5 -116q0 -29 1 -58q4 -88 4 -174q0 -12 1 -26.5t0 -28t-5 -23.5t-16 -14q0 27 -2 15.5t-3 -29t-3.5 -24.5t-2.5 27q10 0 11 11v-11q-8 -53 -8 -111.5t-23 -103.5q-8 -38 -8 -76q0 -19 2 -39q6 -58 17 -116q12 -56 20 -114q4 -29 4 -57.5t-4 -57.5q-31 0 -53.5 14 t-38.5 37q-16 43 -20.5 86t-5.5 88t-6 88t-20 86q-20 55 -40.5 90t-40 58.5t-37 41t-34 41t-29.5 57t-23 91.5q8 -57 11 -125q2 -41 2 -81q0 -27 -1 -55q-2 -68 -10.5 -133t-22.5 -118q-16 -39 -23.5 -90.5t-8.5 -104.5v-16q1 -45 5 -88q6 -51 17 -90q4 -8 5 -21.5t-2 -27 t-11.5 -23.5t-22.5 -10q-47 31 -73.5 79t-49.5 95q-12 14 -10 29.5t5 31t5 30.5t-10 32q-16 -8 -29.5 -13.5t-21.5 2.5q-6 -8 -6 9.5t2 47t4 67.5t4 73t1 59.5t-5 30.5q-18 23 -39 40.5t-37 34.5t-26.5 37.5t-10.5 51.5q0 19 -1 65v31q0 32 1 65q2 50 8.5 92t22.5 54 q6 48 6 77q0 11 -1 19q-3 30 -10 53t-17.5 53t-18.5 95q-12 -4 -24.5 -13t-27 -17.5t-26.5 -10.5t-24 10q-30 59 -30 125q0 63 9 142z" />
<glyph unicode="x" horiz-adv-x="1275" d="M23 1208q0 16 21.5 11t59.5 -52q35 -49 52.5 -68.5t29 -25.5t18.5 -6t23 -12q14 -16 57.5 -58.5t90.5 -88.5t87 -84t52 -46q12 -6 12 7.5t-5 34t-13 46t-11 46t2 32.5t25 8q12 14 11.5 44t1.5 60.5t13 56.5t46 34q4 72 30.5 111.5t55.5 58.5q35 22 78 24q29 -51 30 -75.5 t-13.5 -35.5t-37 -12t-44 -6.5t-34 -18.5t-4.5 -46q4 -23 -3 -38t-17 -27.5t-17.5 -26t-3.5 -31.5q4 -23 8.5 -34t10.5 -22.5t13 -29.5t20 -57q9 -28 9 -51q1 -22 -7 -40q-16 -38 -41 -66t-45.5 -49.5t-8.5 -39.5q12 -29 19.5 -40t14.5 -16.5t17.5 -7.5t28 -10t45 -28.5 t70.5 -61.5q43 -43 46 -60.5t-9 -23.5t-29.5 -5t-17.5 -3q0 -35 24.5 -61.5t59.5 -50t71.5 -48t59.5 -55.5q49 -57 87 -90t53 -52.5t3 -35t-61 -37.5q1 -11 1 -21q0 -34 -12 -42q-14 -10 -41.5 14t-67.5 79.5t-85 133.5q-39 8 -88 67.5t-94 128.5q-53 82 -105 183 q5 -55 5 -98q0 -22 -1 -40q-2 -25 -7 -44t-15 -30.5t-25.5 -11.5t-38.5 19q-4 -23 3.5 -57.5t13.5 -65.5t7 -50.5t-13 -11.5q-11 2 -21 2q-27 0 -41 -16q-20 -22 -31.5 -60t-18.5 -87.5t-22 -94.5q-8 -18 -14 -42.5t-17.5 -45t-27.5 -32t-43 -2.5q-23 61 -26 102 q-1 10 -1 20q0 29 7 52q12 31 30.5 57.5t37 55t31.5 62t13 81.5q0 27 6 48t9.5 42.5t1.5 48t-17 65.5q-12 35 -24.5 69t-13.5 55q0 22 16 27q3 1 7 1q18 0 56 -18q31 -16 34 0t-6 49.5t-24.5 78t-23.5 87.5q0 12 -24.5 42.5t-56.5 70.5t-61.5 81t-42.5 72q-8 18 -35.5 55 t-57.5 74t-52.5 67.5t-17.5 38.5z" />
<glyph unicode="y" horiz-adv-x="989" d="M47 -786q12 43 29.5 85t35 82.5t33 83.5t21.5 89q6 23 16.5 37l19.5 26t12 24.5t-5 30.5q-6 23 5 43.5t27.5 41t32 41t17.5 44.5q0 16 -12.5 27.5t-22.5 24t-13 28t15 39.5q8 14 18.5 26.5t14.5 26t-2 28.5t-31 36q-18 10 -11 25.5t26.5 33t43 35.5t33.5 37 q12 27 10 59.5t-10 66.5t-15 67q-4 22 -4 43q0 12 1 24q4 12 -3 11t-17.5 -5t-21.5 -4t-16 14q1 10 1 21q0 32 -9 68q-12 47 -37 79q-39 53 -63.5 110.5t-40.5 117.5q-14 53 -27 105q-5 17 -5 32q0 33 20 61q-4 47 -22.5 100.5t-33.5 106.5q4 10 2 26.5t7 18.5l14 -16 q59 -98 106 -195.5t107 -193.5q33 -18 49 -49t25.5 -65t15.5 -68.5t18 -63.5q33 -31 55.5 -65.5t28.5 -82.5q2 -12 10.5 -2.5t17.5 25.5t18.5 33.5t15.5 23.5q31 10 57 39q22 25 22 58q0 5 -1 10q35 49 80 101t88 104q3 -16 3 -30q0 -19 -4 -36q-8 -31 -21 -59.5t-29.5 -58 t-30.5 -62.5q-12 -43 -26.5 -89t-45.5 -79q-2 -23 -14.5 -46.5t-10.5 -55.5q-4 -29 -21.5 -54.5t-35.5 -50t-34.5 -51.5t-20.5 -55q-4 -41 -17.5 -80t-40.5 -62q-23 -31 -20 -57v-15q0 -24 -6 -63l-103 -442q-8 -29 -33.5 -69t-58.5 -81t-67.5 -76.5t-62 -55t-42 -18.5 t-4.5 36z" />
<glyph unicode="z" horiz-adv-x="1327" d="M16 1440q0 47 11.5 97t31.5 91q6 8 17.5 9t21.5 1q31 0 74 -21.5t92 -52t102.5 -62.5t103.5 -51t96 -20h3q44 0 78 29q33 31 78 33h9l81 -15q45 -18 81 -45.5t52 -54.5q16 16 24.5 9t4.5 -29q2 -16 -3 -22.5t-12.5 -8.5t-15.5 -3t-14 -9q-31 -47 -45.5 -105.5t-23.5 -119 t-21.5 -119t-36.5 -105.5q-4 -12 -13.5 -8t-19.5 10t-21.5 11.5t-19.5 -2.5q-27 -23 -37 -71t-24 -95q-8 -29 -13.5 -61t-12.5 -62.5t-19.5 -59t-32.5 -47.5q-35 -16 -66.5 -45.5t-50.5 -68.5q-10 -20 -17 -44t-16.5 -45.5t-21.5 -37t-33 -19.5q-12 4 -22.5 -3t-14.5 -18.5 t-1 -25.5t13 -27q20 -23 53.5 -27.5t65.5 -13.5q37 -8 76 -18t79 -17.5t79 -8.5h6l72 12q18 8 22 24.5t2 36t-6 40t-2 36.5q25 0 51.5 -22.5t52.5 -30.5q25 -23 50.5 -34t51 -18.5t51.5 -13.5t52 -18q14 -4 19.5 -16.5t2.5 -27t-11.5 -27.5t-16.5 -21q-18 0 -37.5 11 t-39 22.5t-41 18.5t-42.5 -1q-25 -25 -54.5 -31t-60 -8t-61.5 -5t-59 -20q-41 -31 -91 -31q-12 0 -24 2q-64 10 -131 42q-31 23 -63 32q-28 8 -57 8h-10q-34 -2 -66.5 -10t-65.5 -20q-6 4 -14.5 0t-15.5 -9.5t-14 -7.5t-11 7q-4 39 -30 45t-48 6q14 31 44 40t52 33 q20 51 40.5 105.5t44.5 108t52.5 100.5t67.5 82q14 14 30.5 23.5t34 17.5t34 17t30.5 26q14 57 22.5 117.5t16.5 121t19 117.5t34 113q20 86 74.5 136t118.5 83q-40 14 -74 14h-9h-15q-32 0 -68 6q-53 30 -109 42q-15 3 -29 3q-40 0 -73 -24q-32 11 -64 11h-5 q-34 -1 -65.5 -7t-62.5 -16.5t-61 -18.5q-8 14 -5 33.5t8 40t6 42t-11 40.5q-14 16 -32 21t-37 3t-36.5 -9t-32.5 -15z" />
<glyph unicode="&#x2000;" horiz-adv-x="1019" />
<glyph unicode="&#x2001;" horiz-adv-x="2038" />
<glyph unicode="&#x2002;" horiz-adv-x="1019" />
<glyph unicode="&#x2003;" horiz-adv-x="2038" />
<glyph unicode="&#x2004;" horiz-adv-x="679" />
<glyph unicode="&#x2005;" horiz-adv-x="509" />
<glyph unicode="&#x2006;" horiz-adv-x="339" />
<glyph unicode="&#x2007;" horiz-adv-x="339" />
<glyph unicode="&#x2008;" horiz-adv-x="254" />
<glyph unicode="&#x2009;" horiz-adv-x="407" />
<glyph unicode="&#x200a;" horiz-adv-x="113" />
<glyph unicode="&#x202f;" horiz-adv-x="407" />
<glyph unicode="&#x205f;" horiz-adv-x="509" />
<glyph unicode="&#x25fc;" horiz-adv-x="1341" d="M0 0v1341h1341v-1341h-1341z" />
</font>
</defs>
</svg>
